<svg width="772" height="492" viewBox="0 0 772 492" fill="none" xmlns="http://www.w3.org/2000/svg">
<g clip-path="url(#clip0)">
<path opacity="0.1" d="M278.703 368.105C424.799 368.105 543.234 364.553 543.234 360.173C543.234 355.792 424.799 352.24 278.703 352.24C132.606 352.24 14.1713 355.792 14.1713 360.173C14.1713 364.553 132.606 368.105 278.703 368.105Z" fill="#6C63FF"/>
<g opacity="0.7">
<path opacity="0.7" d="M180.178 301.624H95.8252V353.751H180.178V301.624Z" fill="#65617D"/>
<path opacity="0.1" d="M151.161 310.689H125.518V316.733H151.161V310.689Z" fill="black"/>
<path opacity="0.1" d="M147.955 311.445H128.723V315.978H147.955V311.445Z" fill="black"/>
<path opacity="0.7" d="M265.881 301.624H181.528V353.751H265.881V301.624Z" fill="#65617D"/>
<path opacity="0.1" d="M236.864 310.689H211.22V316.733H236.864V310.689Z" fill="black"/>
<path opacity="0.1" d="M233.658 311.445H214.426V315.978H233.658V311.445Z" fill="black"/>
<path opacity="0.7" d="M180.178 247.986H95.8252V300.113H180.178V247.986Z" fill="#65617D"/>
<path opacity="0.1" d="M151.161 257.053H125.518V263.096H151.161V257.053Z" fill="black"/>
<path opacity="0.1" d="M147.955 257.808H128.723V262.34H147.955V257.808Z" fill="black"/>
<path opacity="0.7" d="M265.881 247.986H181.528V300.113H265.881V247.986Z" fill="#65617D"/>
<path opacity="0.1" d="M236.864 257.053H211.22V263.096H236.864V257.053Z" fill="black"/>
<path opacity="0.1" d="M233.658 257.808H214.426V262.34H233.658V257.808Z" fill="black"/>
<path opacity="0.7" d="M180.178 193.594H95.8252V245.72H180.178V193.594Z" fill="#65617D"/>
<path opacity="0.1" d="M151.161 202.659H125.518V208.703H151.161V202.659Z" fill="black"/>
<path opacity="0.1" d="M147.955 203.415H128.723V207.948H147.955V203.415Z" fill="black"/>
<path opacity="0.7" d="M265.881 193.594H181.528V245.72H265.881V193.594Z" fill="#65617D"/>
<path opacity="0.1" d="M236.864 202.659H211.22V208.703H236.864V202.659Z" fill="black"/>
<path opacity="0.1" d="M233.658 203.415H214.426V207.948H233.658V203.415Z" fill="black"/>
<path opacity="0.7" d="M265.881 139.201H181.528V191.327H265.881V139.201Z" fill="#65617D"/>
<path opacity="0.1" d="M236.864 148.266H211.22V154.31H236.864V148.266Z" fill="black"/>
<path opacity="0.1" d="M233.658 149.021H214.426V153.554H233.658V149.021Z" fill="black"/>
</g>
<g opacity="0.7">
<path opacity="0.7" d="M351.584 300.869H267.231V352.996H351.584V300.869Z" fill="#65617D"/>
<path opacity="0.1" d="M322.566 309.935H296.923V315.978H322.566V309.935Z" fill="black"/>
<path opacity="0.1" d="M319.361 310.689H300.129V315.222H319.361V310.689Z" fill="black"/>
<path opacity="0.7" d="M437.287 300.869H352.934V352.996H437.287V300.869Z" fill="#65617D"/>
<path opacity="0.1" d="M408.269 309.935H382.626V315.978H408.269V309.935Z" fill="black"/>
<path opacity="0.1" d="M405.064 310.689H385.831V315.222H405.064V310.689Z" fill="black"/>
<path opacity="0.7" d="M351.584 247.231H267.231V299.358H351.584V247.231Z" fill="#65617D"/>
<path opacity="0.1" d="M322.566 256.297H296.923V262.341H322.566V256.297Z" fill="black"/>
<path opacity="0.1" d="M319.361 257.053H300.129V261.585H319.361V257.053Z" fill="black"/>
<path opacity="0.7" d="M437.287 247.231H352.934V299.358H437.287V247.231Z" fill="#65617D"/>
<path opacity="0.1" d="M408.269 256.297H382.626V262.341H408.269V256.297Z" fill="black"/>
<path opacity="0.1" d="M405.064 257.053H385.831V261.585H405.064V257.053Z" fill="black"/>
<path opacity="0.7" d="M351.584 192.838H267.231V244.965H351.584V192.838Z" fill="#65617D"/>
<path opacity="0.1" d="M322.566 201.904H296.923V207.948H322.566V201.904Z" fill="black"/>
<path opacity="0.1" d="M319.361 202.659H300.129V207.192H319.361V202.659Z" fill="black"/>
<path opacity="0.7" d="M437.287 192.838H352.934V244.965H437.287V192.838Z" fill="#65617D"/>
<path opacity="0.1" d="M408.269 201.904H382.626V207.948H408.269V201.904Z" fill="black"/>
<path opacity="0.1" d="M405.064 202.659H385.831V207.192H405.064V202.659Z" fill="black"/>
<path opacity="0.7" d="M437.287 138.445H352.934V190.572H437.287V138.445Z" fill="#65617D"/>
<path opacity="0.1" d="M408.269 147.511H382.626V153.554H408.269V147.511Z" fill="black"/>
<path opacity="0.1" d="M405.064 148.266H385.831V152.799H405.064V148.266Z" fill="black"/>
</g>
<path opacity="0.1" d="M592.692 0.0833119C592.692 0.0833119 535.879 -3.75442 542.559 40.8176C542.559 40.8176 541.21 48.6971 547.607 52.2704C547.607 52.2704 547.708 48.969 553.438 50.0947C555.477 50.4732 557.55 50.5847 559.612 50.4271C562.399 50.2116 565.047 48.9865 567.157 46.9369C567.157 46.9369 583.13 39.5485 589.338 10.3273C589.338 10.3273 593.934 3.95126 593.752 2.31191L584.162 6.89755C584.162 6.89755 587.442 14.641 584.837 21.0775C584.837 21.0775 584.527 7.17707 582.685 7.47925C582.313 7.54724 577.704 10.1611 577.704 10.1611C577.704 10.1611 583.339 23.6461 579.088 33.4519C579.088 33.4519 580.701 16.8318 575.943 11.1357L569.195 15.5475C569.195 15.5475 575.781 29.4782 571.314 40.8479C571.314 40.8479 572.461 23.4119 567.771 16.6203L561.657 21.9614C561.657 21.9614 567.845 35.6956 564.073 45.1238C564.073 45.1238 563.58 24.8246 560.334 23.291C560.334 23.291 554.983 28.5792 554.166 30.7398C554.166 30.7398 558.404 40.7119 555.773 45.9699C555.773 45.9699 554.16 32.4472 552.837 32.3716C552.837 32.3716 547.506 41.3313 546.953 47.4808C546.953 47.4808 547.182 38.3397 551.548 31.5179C551.548 31.5179 546.392 32.5076 543.383 36.2547C543.383 36.2547 544.213 29.9164 552.864 29.3649C552.864 29.3649 557.271 22.5658 558.445 22.1503C558.445 22.1503 549.848 21.3495 544.631 23.9331C544.631 23.9331 549.22 17.9575 560.024 20.6771L566.064 15.1547C566.064 15.1547 554.74 13.4247 549.935 15.336C549.935 15.336 555.462 10.0478 567.69 13.9082L574.276 9.54165C574.276 9.54165 564.619 7.21484 558.87 8.03073C558.87 8.03073 564.943 4.36676 576.206 8.34047L580.93 5.97589C580.93 5.97589 573.858 4.41964 571.786 4.17034C569.714 3.92104 569.606 3.28645 569.606 3.28645C574.087 2.45005 578.687 3.02281 582.894 4.94091C582.894 4.94091 592.868 0.785888 592.692 0.0833119Z" fill="#6C63FF"/>
<path opacity="0.1" d="M522.618 11.4224C522.618 11.4224 496.975 9.68481 499.978 29.8329C499.978 29.8329 499.377 33.3911 502.252 35.0078C502.252 35.0078 502.299 33.4969 504.891 34.0181C505.811 34.1915 506.747 34.2423 507.678 34.1692C508.937 34.0734 510.134 33.5189 511.086 32.5903C511.086 32.5903 518.306 29.2587 521.113 16.0533C521.113 16.0533 523.185 13.1675 523.104 12.4271L518.772 14.4971C518.772 14.4971 520.256 18.0024 519.089 20.9109C519.089 20.9109 518.947 14.6255 518.117 14.7766C517.949 14.7766 515.863 15.9853 515.863 15.9853C515.863 15.9853 518.414 22.0819 516.491 26.5164C516.491 26.5164 517.22 19.0072 515.067 16.431L512.017 18.4255C512.017 18.4255 515 24.7184 512.975 29.8556C512.975 29.8556 513.495 21.9761 511.376 18.909L508.616 21.3189C508.616 21.3189 511.409 27.5287 509.709 31.7895C509.709 31.7895 509.486 22.6107 508.015 21.9232C508.015 21.9232 505.599 24.3105 505.228 25.2926C505.228 25.2926 507.145 29.8253 505.957 32.1673C505.957 32.1673 505.228 26.0556 504.607 26.0329C504.607 26.0329 502.205 30.0822 501.948 32.8321C502.069 30.2657 502.785 27.7789 504.027 25.6174C502.637 25.9122 501.354 26.6553 500.336 27.7554C500.336 27.7554 500.714 24.8997 504.621 24.6429C504.621 24.6429 506.645 21.5757 507.145 21.3869C507.145 21.3869 503.258 21.0242 500.902 22.1952C500.902 22.1952 502.974 19.4907 507.86 20.7221L510.559 18.229C510.559 18.229 505.444 17.4736 503.271 18.3121C503.271 18.3121 505.768 15.9249 511.295 17.6625L514.264 15.6756C514.264 15.6756 509.905 14.6179 507.3 15.0032C507.3 15.0032 510.046 13.3412 515.135 15.1392L517.26 14.074C517.26 14.074 514.062 13.3639 513.124 13.2581C512.186 13.1524 512.138 12.8577 512.138 12.8577C514.164 12.4805 516.244 12.7421 518.144 13.6132C518.144 13.6132 522.699 11.7397 522.618 11.4224Z" fill="#6C63FF"/>
<path d="M151.289 487.09C166.275 487.09 178.424 484.79 178.424 481.953C178.424 479.115 166.275 476.815 151.289 476.815C136.303 476.815 124.154 479.115 124.154 481.953C124.154 484.79 136.303 487.09 151.289 487.09Z" fill="#6C63FF"/>
<path d="M162.511 473.551C163.75 472.422 164.652 470.896 165.096 469.177C165.433 467.447 164.772 465.4 163.287 464.728C161.627 464.017 159.853 465.309 158.51 466.609C157.167 467.908 155.621 469.396 153.867 469.117C154.771 468.197 155.448 467.032 155.831 465.733C156.214 464.435 156.29 463.047 156.053 461.706C155.977 461.15 155.767 460.628 155.446 460.195C154.521 459.092 152.855 459.56 151.748 460.429C148.239 463.194 147.26 468.535 147.24 473.332C146.889 471.602 147.186 469.797 147.179 468.044C147.173 466.291 146.734 464.267 145.391 463.338C144.563 462.839 143.632 462.594 142.692 462.627C141.119 462.559 139.358 462.741 138.285 464.033C136.936 465.634 137.293 468.324 138.454 470.076C139.615 471.829 141.389 472.955 143.022 474.171C144.329 475.043 145.443 476.233 146.282 477.653C146.383 477.852 146.464 478.062 146.525 478.28H156.418C158.63 477.019 160.68 475.428 162.511 473.551Z" fill="#6C63FF"/>
<path d="M484.093 258.375C484.037 257.802 483.854 257.255 483.561 256.782C483.267 256.31 482.872 255.927 482.412 255.67C482.025 255.485 481.608 255.39 481.187 255.389C480.766 255.388 480.35 255.482 479.962 255.665C479.574 255.848 479.223 256.117 478.93 256.455C478.637 256.794 478.407 257.195 478.255 257.634L463.267 292.937L459.893 431.941H465.292L467.316 293.246L483.809 260.565C484.108 259.887 484.207 259.12 484.093 258.375Z" fill="#3F3D56"/>
<path opacity="0.1" d="M725.815 463.338C721.393 467.664 716.632 471.535 711.59 474.904C711.511 475.028 711.423 475.145 711.326 475.252C710.791 475.76 710.155 476.118 709.471 476.294C692.748 486.728 673.9 492.146 654.756 492.023H283.723C241.21 487.127 215.269 480.638 215.269 473.514C215.269 467.992 230.844 462.847 257.662 458.541C260.442 458.088 263.342 457.649 266.36 457.226C268.218 456.965 270.119 456.713 272.063 456.471L275.362 456.04C277.81 455.728 280.322 455.423 282.9 455.126H283.109L285.809 454.824C288.09 454.56 290.418 454.31 292.793 454.069L294.521 453.895L298.927 453.457C301.789 453.17 304.713 452.895 307.7 452.633C310.179 452.417 312.698 452.2 315.258 451.984C341.212 449.83 371.134 448.206 403.694 447.156L412.993 446.801L416.124 446.726L422.737 446.559L425.39 446.499L428.177 446.439L430.161 446.401L439.473 446.235L444.258 446.159H445.236C456.551 446.008 468.077 445.93 479.814 445.925C503.015 445.925 525.513 446.235 546.953 446.824C559.261 447.156 571.195 447.579 582.752 448.093H582.86C616.183 449.559 646.01 451.719 670.695 454.401L671.147 454.454C677.484 455.141 683.483 455.874 689.111 456.63C694.409 457.34 699.382 458.088 703.998 458.851C705.597 459.115 707.149 459.387 708.661 459.651L709.046 459.727C715.443 460.883 721.057 462.061 725.815 463.338Z" fill="#6C63FF"/>
<path d="M711.59 474.904C711.511 475.028 711.423 475.144 711.327 475.252C710.791 475.76 710.155 476.118 709.471 476.294C708.106 476.723 706.703 476.976 705.287 477.05H704.862C704.053 477.08 703.244 477.049 702.439 476.959C701.851 476.864 701.258 476.821 700.664 476.83H700.583C699.72 476.966 698.872 477.202 698.053 477.533C696.227 478.093 694.345 478.393 692.452 478.424H691.777C689.658 478.424 687.512 478.341 685.386 478.357C685.042 478.357 684.711 478.357 684.354 478.357C680.71 478.462 677.086 479.112 673.442 479.18H672.274C668.705 479.082 665.054 478.228 662.213 475.811C661.64 475.387 661.175 474.804 660.863 474.118C660.621 473.396 660.54 472.618 660.627 471.852C660.694 470.485 660.931 468.996 661.848 468.075C662.425 467.579 663.087 467.222 663.792 467.025C665.027 466.579 666.268 466.148 667.503 465.718C668.738 465.287 670.149 464.826 671.478 464.388L671.735 464.297L672.477 464.048L672.956 463.867C673.537 463.658 674.094 463.374 674.616 463.021C675.305 462.533 675.888 461.88 676.323 461.109C676.398 460.973 676.479 460.83 676.546 460.686C676.614 460.543 676.546 460.452 676.499 460.331C676.384 459.387 676.296 458.42 676.148 457.498C674.249 457.005 672.517 455.909 671.161 454.34C669.996 453.048 669.015 451.562 668.252 449.936C666.572 446.401 665.708 442.45 664.453 438.695C662.53 432.984 659.729 427.711 656.909 422.483C654.331 417.663 651.739 412.828 648.811 408.273C646.86 405.251 644.762 402.372 642.832 399.343C637.372 390.89 633.455 381.314 631.306 371.164C630.977 369.217 630.51 367.302 629.909 365.438C628.748 362.265 626.622 359.682 624.976 356.781C623.206 353.654 621.993 350.172 621.406 346.529C621.069 344.459 620.502 342.223 618.66 341.996L618.464 342.427C614.644 350.737 610.724 359.198 604.967 365.982C604.047 366.979 603.204 368.064 602.45 369.223C601.845 370.347 601.304 371.513 600.831 372.713C599.919 374.869 598.71 376.85 597.247 378.583C596.812 379.076 596.338 379.523 595.83 379.92C595.156 380.469 594.406 380.89 593.61 381.167C593.296 381.274 592.976 381.355 592.652 381.408C592.652 381.499 592.685 381.582 592.692 381.673C592.699 381.764 592.733 381.869 592.746 381.968C593.739 388.012 593.313 394.241 591.511 400.046C591.464 400.227 591.41 400.401 591.349 400.582C591.07 401.428 590.767 402.259 590.438 403.075C589.615 405.077 588.637 406.996 587.867 409.028C587.739 409.376 587.611 409.723 587.496 410.071C584.797 418.162 585.472 427.197 585.121 435.892C585.09 437.793 584.889 439.687 584.52 441.543C584.061 443.636 583.326 445.796 582.921 447.957C582.552 449.577 582.522 451.27 582.833 452.905L582.671 452.973C581.949 453.275 581.213 453.547 580.478 453.804V453.917C580.741 455.61 580.997 457.302 581.261 458.987C581.483 460.437 581.747 462.008 582.651 463.036C582.897 463.263 583.123 463.516 583.326 463.791C583.859 464.728 583.386 465.967 583.488 467.078C583.636 468.649 584.932 469.986 584.729 471.55C584.638 472.017 584.447 472.452 584.172 472.818C583.896 473.184 583.546 473.47 583.15 473.65C582.818 473.818 582.469 473.943 582.111 474.02L581.888 474.073C581.483 474.156 581.078 474.201 580.674 474.247C575.646 474.806 570.551 475.365 565.571 474.413C564.586 474.224 563.607 473.975 562.609 473.884C561.347 473.821 560.082 473.879 558.829 474.058C549.591 475.037 540.299 475.239 531.033 474.662C528.624 474.511 525.858 474.073 524.582 471.769C523.523 469.858 523.907 467.387 524.44 465.204C524.593 464.401 524.869 463.634 525.257 462.938C525.3 462.862 525.35 462.791 525.405 462.726C526.647 460.996 528.982 460.89 530.993 460.958L537.566 461.177C538.213 461.236 538.864 461.18 539.496 461.011C540.562 460.664 541.372 459.712 542.37 459.175C543.626 458.503 545.205 458.42 546.109 457.272L546.224 457.105C546.383 456.862 546.532 456.61 546.669 456.35C546.669 456.297 546.73 456.244 546.764 456.191C546.788 456.144 546.815 456.099 546.845 456.055C547.675 454.832 549.125 454.424 550.306 453.645C550.485 453.529 550.655 453.395 550.813 453.245L550.948 453.109C549.676 452.094 548.567 450.845 547.668 449.415C547.321 448.997 547.065 448.496 546.919 447.949C546.836 447.539 546.864 447.11 547 446.718C547.029 446.622 547.065 446.528 547.108 446.438L547.142 446.363C547.6 445.35 548.545 444.436 549.065 443.401C549.085 443.369 549.1 443.333 549.112 443.296C549.827 441.785 549.969 439.443 548.91 438.227C549.449 428.277 551.892 418.585 552.432 408.605C552.648 404.654 552.56 400.688 552.722 396.722C552.884 392.755 553.262 388.91 553.66 385.02C554.551 376.128 556.711 367.417 556.407 358.488C556.381 357.655 556.412 356.822 556.501 355.995C556.498 355.934 556.498 355.874 556.501 355.814C556.718 353.984 557.227 352.213 558.006 350.586C558.984 348.747 560.092 346.999 561.32 345.358C565.47 339.314 570.457 333.271 571.935 325.837C572.697 321.999 574.384 318.486 576.065 315.034C577.057 312.979 578.089 310.871 579.675 309.36C580.534 308.695 581.332 307.935 582.057 307.094C583.164 305.492 583.204 303.279 583.859 301.375C584.196 300.386 584.716 299.479 584.972 298.459C584.972 298.353 585.019 298.255 585.04 298.149C585.189 297.12 585.268 296.08 585.276 295.037C585.276 294.735 585.316 294.44 585.35 294.145C585.744 291.159 586.519 288.251 587.651 285.511C587.793 285.163 587.928 284.808 588.063 284.46C584.949 282.427 582.203 279.76 579.965 276.596C579.206 275.573 578.548 274.461 578.001 273.28C576.611 270.19 576.294 266.669 575.639 263.285C574.074 255.217 570.491 247.617 569.991 239.367C569.843 236.851 569.991 234.253 569.208 231.873C568.993 231.23 568.738 230.604 568.446 229.999C568.324 229.743 568.21 229.486 568.088 229.244L567.953 228.957L567.609 228.201L567.056 228.685C553.25 240.787 538.756 251.87 523.664 261.865L522.369 262.726C521.694 263.09 521.107 263.629 520.655 264.297C520.601 264.396 520.553 264.494 520.506 264.592C520.196 265.31 520.115 266.103 519.831 266.858C519.224 268.588 517.665 269.691 516.073 270.205C513.191 271.034 510.135 270.594 507.536 268.974C507.205 268.785 506.861 268.588 506.564 268.369C505.775 268.859 504.943 269.256 504.081 269.555C501.382 270.432 498.554 270.394 495.76 270.386C492.967 270.379 490.112 270.386 487.467 271.414C485.699 272.086 483.985 273.197 482.149 273.302C481.938 273.317 481.726 273.317 481.515 273.302C480.468 273.168 479.45 272.833 478.505 272.313L477.952 272.033C477.665 271.881 477.386 271.712 477.115 271.527C476.819 271.323 476.546 271.082 476.298 270.809C475.941 270.408 475.681 269.911 475.543 269.366C475.451 268.973 475.451 268.559 475.543 268.165C475.569 267.988 475.65 267.828 475.772 267.712C475.892 267.632 476.03 267.593 476.17 267.599C476.944 267.589 477.717 267.663 478.478 267.818C478.925 267.886 479.377 267.914 479.828 267.901H480.071C480.469 267.853 480.853 267.714 481.202 267.493C481.55 267.273 481.854 266.974 482.095 266.617C482.169 266.506 482.228 266.384 482.271 266.254C482.352 266.042 482.394 265.813 482.392 265.582C482.396 265.524 482.396 265.466 482.392 265.408C482.109 265.264 481.825 265.121 481.555 264.947C481.414 264.864 481.279 264.773 481.144 264.683L481.063 264.622C480.82 264.438 480.594 264.228 480.388 263.995C480.257 263.85 480.141 263.687 480.044 263.512C479.864 263.238 479.73 262.931 479.646 262.605C479.089 262.475 478.514 262.493 477.965 262.658C477.23 262.885 476.487 263.368 475.759 263.534C475.391 263.638 475.004 263.619 474.645 263.481C473.592 263.058 473.221 261.623 472.998 260.392C472.958 260.157 472.911 259.916 472.877 259.674C472.799 259.21 472.799 258.733 472.877 258.269C473.203 257.213 473.826 256.304 474.652 255.678L476.865 253.6L477.027 253.449C477.027 253.245 476.953 253.041 476.926 252.837C476.848 252.37 476.848 251.891 476.926 251.424C477.252 250.371 477.875 249.464 478.701 248.841L483.6 244.225C484.518 243.364 485.516 242.457 486.711 242.366C488.486 242.23 489.903 243.877 491.232 245.199C492.906 246.861 494.937 248.221 497.171 248.387C498.234 248.442 499.298 248.278 500.309 247.904L500.882 247.692C500.761 247.413 500.639 247.133 500.525 246.854C500.329 246.393 500.133 245.925 499.944 245.456C502.819 245.252 505.431 243.484 507.61 241.369C509.79 239.254 511.659 236.753 513.859 234.676C516.235 232.409 518.961 230.725 521.37 228.541C526.971 223.457 530.689 215.986 536.682 211.506C538.76 209.942 541.163 208.696 542.58 206.369C543.018 205.613 543.349 204.858 543.801 204.102C545.239 201.836 547.702 200.793 549.733 199.222C551.764 197.651 553.532 195.347 555.185 193.133C556.36 191.554 557.541 189.975 558.661 188.351C559.693 186.198 560.564 183.947 561.644 181.824C562.56 180.03 563.629 178.34 564.835 176.777C565.112 176.173 565.396 175.569 565.699 174.979C566.003 174.39 566.226 173.99 566.509 173.469C566.705 173.129 566.907 172.804 567.116 172.471C566.502 171.255 565.915 170.205 565.638 169.744L565.504 169.54C564.908 168.83 564.272 168.164 563.601 167.546C562.895 167.426 562.196 167.26 561.509 167.047C557.344 165.769 553.67 162.994 551.053 159.148C548.436 155.303 547.021 150.6 547.027 145.766C547.023 145.743 547.023 145.72 547.027 145.698C547.029 142.236 547.765 138.823 549.173 135.741C549.456 135.121 549.76 134.525 550.09 133.943C549.782 133.834 549.482 133.697 549.193 133.535C548.701 133.263 548.271 132.868 547.938 132.379C547.663 131.944 547.485 131.441 547.418 130.914C547.304 129.668 547.471 128.411 547.904 127.257C548.088 126.702 548.298 126.157 548.532 125.625C548.55 125.594 548.566 125.561 548.579 125.527C551.595 118.728 558.026 114.55 564.451 114.256C571.381 113.946 578.13 117.587 583.596 122.8C585.227 124.298 586.686 126.016 587.941 127.914C590.796 132.356 592.085 138.038 592.463 143.666C592.605 145.406 592.578 147.159 592.382 148.893C592.31 149.511 592.198 150.123 592.044 150.722C591.957 151.077 591.842 151.432 591.72 151.787C591.599 152.142 591.525 152.301 591.417 152.542V152.58C591.316 152.822 591.201 153.048 591.086 153.275L591.025 153.373L590.938 153.532C590.992 153.676 591.052 153.827 591.113 153.97C591.174 154.114 591.228 154.25 591.295 154.386H591.376C592.726 154.507 593.974 154.718 595.351 154.839C595.999 154.873 596.641 154.985 597.268 155.171C598.617 155.625 599.636 156.728 600.77 157.619C603.577 159.84 607.032 160.875 609.792 163.172C613.841 166.556 615.866 172.146 618.322 177.155C621.561 183.864 626.838 189.575 629.167 196.752C630.219 200.01 631.276 203.264 632.338 206.512C634.41 212.881 636.482 219.28 639.296 225.285C643.21 233.641 648.507 241.15 651.645 249.928C651.956 250.808 652.541 251.533 653.292 251.968C657.567 258.728 661.369 265.848 664.662 273.265C666.397 277.185 668.036 281.257 668.543 285.601C668.938 289.469 668.651 293.385 667.699 297.13C667.161 299.354 666.501 301.539 665.722 303.672C665.418 304.419 665.192 305.202 665.047 306.006C665.047 306.089 665.047 306.172 665.047 306.255C664.912 307.706 665.405 309.141 665.54 310.592C665.653 311.759 665.535 312.941 665.195 314.052C665.141 314.226 665.081 314.399 665.02 314.573C664.602 315.456 664.247 316.376 663.961 317.323C663.936 317.437 663.918 317.553 663.907 317.67C663.684 319.31 664.264 320.964 664.581 322.604C665.769 328.526 665.553 334.691 665.256 340.735C665.101 343.756 667.281 346.181 669.103 348.41C672.477 352.588 675.115 357.476 677.659 362.341C679.048 364.811 680.216 367.427 681.148 370.152C682.113 373.265 682.498 376.558 683.031 379.784C684.752 389.756 690.373 398.565 691.898 408.56C692.606 413.137 694.408 417.413 697.115 420.934C697.93 421.877 698.681 422.887 699.362 423.956C699.832 424.808 700.206 425.721 700.475 426.676C701.139 428.897 701.452 431.231 701.4 433.573C701.293 434.694 701.35 435.827 701.569 436.927C702.203 439.246 704.47 440.523 705.408 442.706C706.346 444.89 705.698 447.685 706.083 450.163C706.385 452.161 707.349 453.957 708.782 455.194C708.243 455.723 707.676 456.206 707.095 456.705C707.632 457.172 708.103 457.727 708.492 458.352C708.758 458.77 708.984 459.218 709.167 459.689C710.058 462.008 710.085 464.766 710.814 467.244C711.124 468.271 711.563 469.359 711.293 470.401C711.177 470.7 711.1 471.016 711.063 471.338C711.063 472.018 711.698 472.464 711.941 473.083C712.029 473.395 712.043 473.727 711.982 474.046C711.92 474.365 711.785 474.661 711.59 474.904Z" fill="url(#paint0_linear)"/>
<path d="M568.77 180.275C572.9 179.029 576.577 176.422 580.181 173.846L592.739 164.894C589.332 164.592 586.389 161.872 584.642 158.579C582.894 155.285 582.172 151.455 581.578 147.692C576.179 150.049 571.503 154.046 567.143 158.269C565.416 159.938 561.745 162.462 561.212 165.068C560.678 167.674 564.08 169.79 565.396 171.535C565.848 172.116 570.106 179.86 568.77 180.275Z" fill="#FBBEBE"/>
<path opacity="0.1" d="M568.77 180.275C572.9 179.029 576.577 176.422 580.181 173.846L592.739 164.894C589.332 164.592 586.389 161.872 584.642 158.579C582.894 155.285 582.172 151.455 581.578 147.692C576.179 150.049 571.503 154.046 567.143 158.269C565.416 159.938 561.745 162.462 561.212 165.068C560.678 167.674 564.08 169.79 565.396 171.535C565.848 172.116 570.106 179.86 568.77 180.275Z" fill="black"/>
<path d="M500.147 254.219C497.933 255.488 495.578 256.788 493.101 256.606C490.875 256.448 488.843 255.095 487.17 253.441C485.82 252.127 484.43 250.487 482.655 250.623C481.467 250.714 480.469 251.613 479.551 252.466L474.659 257.052C473.835 257.672 473.213 258.573 472.884 259.621C472.787 260.332 472.826 261.058 472.998 261.751C473.221 262.975 473.592 264.403 474.645 264.818C475.698 265.234 476.845 264.342 477.958 264.002C478.639 263.808 479.353 263.822 480.026 264.044C480.7 264.266 481.307 264.688 481.785 265.264C482.182 265.702 482.423 266.288 482.46 266.911C482.46 268.278 481.11 269.177 479.868 269.245C478.626 269.313 477.439 268.86 476.211 268.943C476.136 268.933 476.061 268.939 475.989 268.961C475.917 268.984 475.85 269.022 475.792 269.074C475.733 269.127 475.685 269.191 475.649 269.265C475.613 269.338 475.591 269.419 475.583 269.502C475.507 269.979 475.539 270.47 475.677 270.93C475.815 271.389 476.054 271.802 476.373 272.131C477.014 272.786 477.76 273.299 478.573 273.642C479.517 274.164 480.535 274.497 481.582 274.624C483.654 274.775 485.557 273.491 487.521 272.743C490.166 271.746 493.014 271.716 495.808 271.723C498.601 271.731 501.436 271.776 504.115 270.9C506.794 270.023 509.338 268.082 510.384 265.188C510.507 264.918 510.548 264.61 510.498 264.312C510.394 263.994 510.194 263.727 509.932 263.557C506.166 260.437 504.641 256.644 500.403 254.4L500.147 254.219Z" fill="#FBBEBE"/>
<path opacity="0.1" d="M500.147 254.219C497.933 255.488 495.578 256.788 493.101 256.606C490.875 256.448 488.843 255.095 487.17 253.441C485.82 252.127 484.43 250.487 482.655 250.623C481.467 250.714 480.469 251.613 479.551 252.466L474.659 257.052C473.835 257.672 473.213 258.573 472.884 259.621C472.787 260.332 472.826 261.058 472.998 261.751C473.221 262.975 473.592 264.403 474.645 264.818C475.698 265.234 476.845 264.342 477.958 264.002C478.639 263.808 479.353 263.822 480.026 264.044C480.7 264.266 481.307 264.688 481.785 265.264C482.182 265.702 482.423 266.288 482.46 266.911C482.46 268.278 481.11 269.177 479.868 269.245C478.626 269.313 477.439 268.86 476.211 268.943C476.136 268.933 476.061 268.939 475.989 268.961C475.917 268.984 475.85 269.022 475.792 269.074C475.733 269.127 475.685 269.191 475.649 269.265C475.613 269.338 475.591 269.419 475.583 269.502C475.507 269.979 475.539 270.47 475.677 270.93C475.815 271.389 476.054 271.802 476.373 272.131C477.014 272.786 477.76 273.299 478.573 273.642C479.517 274.164 480.535 274.497 481.582 274.624C483.654 274.775 485.557 273.491 487.521 272.743C490.166 271.746 493.014 271.716 495.808 271.723C498.601 271.731 501.436 271.776 504.115 270.9C506.794 270.023 509.338 268.082 510.384 265.188C510.507 264.918 510.548 264.61 510.498 264.312C510.394 263.994 510.194 263.727 509.932 263.557C506.166 260.437 504.641 256.644 500.403 254.4L500.147 254.219Z" fill="black"/>
<path d="M579.169 173.65C578.122 172.893 576.933 172.416 575.696 172.255C574.458 172.094 573.203 172.253 572.029 172.72C569.678 173.668 567.568 175.242 565.881 177.306C564.197 179.229 562.739 181.384 561.542 183.72C560.395 185.986 559.518 188.358 558.371 190.617C556.346 194.659 553.701 198.225 551.042 201.76C549.389 203.959 547.715 206.187 545.596 207.804C543.477 209.421 541.109 210.41 539.671 212.654C539.219 213.364 538.895 214.165 538.45 214.883C537.039 217.194 534.644 218.433 532.559 219.982C526.58 224.439 522.861 231.858 517.274 236.912C514.865 239.087 512.145 240.795 509.776 243.016C507.57 245.078 505.727 247.549 503.528 249.664C501.328 251.779 498.743 253.524 495.875 253.721C497.792 258.503 500.079 263.194 503.366 266.919C506.652 270.643 511.578 273.023 516.066 271.565C517.658 271.051 519.217 269.963 519.825 268.241C520.016 267.355 520.282 266.493 520.621 265.664C521.072 265 521.657 264.464 522.328 264.101C540.343 252.329 557.515 239.01 573.689 224.265C578.028 220.307 582.334 216.764 586.787 212.933C588.384 211.665 589.861 210.218 591.194 208.612C593.052 206.129 594.212 203.087 594.529 199.867C594.846 196.648 594.305 193.395 592.976 190.519C591.781 188.318 590.413 186.243 588.886 184.317C586.109 180.269 582.838 176.678 579.169 173.65Z" fill="#6C63FF"/>
<path opacity="0.1" d="M579.169 173.65C578.122 172.893 576.933 172.416 575.696 172.255C574.458 172.094 573.203 172.253 572.029 172.72C569.678 173.668 567.568 175.242 565.881 177.306C564.197 179.229 562.739 181.384 561.542 183.72C560.395 185.986 559.518 188.358 558.371 190.617C556.346 194.659 553.701 198.225 551.042 201.76C549.389 203.959 547.715 206.187 545.596 207.804C543.477 209.421 541.109 210.41 539.671 212.654C539.219 213.364 538.895 214.165 538.45 214.883C537.039 217.194 534.644 218.433 532.559 219.982C526.58 224.439 522.861 231.858 517.274 236.912C514.865 239.087 512.145 240.795 509.776 243.016C507.57 245.078 505.727 247.549 503.528 249.664C501.328 251.779 498.743 253.524 495.875 253.721C497.792 258.503 500.079 263.194 503.366 266.919C506.652 270.643 511.578 273.023 516.066 271.565C517.658 271.051 519.217 269.963 519.825 268.241C520.016 267.355 520.282 266.493 520.621 265.664C521.072 265 521.657 264.464 522.328 264.101C540.343 252.329 557.515 239.01 573.689 224.265C578.028 220.307 582.334 216.764 586.787 212.933C588.384 211.665 589.861 210.218 591.194 208.612C593.052 206.129 594.212 203.087 594.529 199.867C594.846 196.648 594.305 193.395 592.976 190.519C591.781 188.318 590.413 186.243 588.886 184.317C586.109 180.269 582.838 176.678 579.169 173.65Z" fill="black"/>
<path d="M550.171 453.903C548.991 454.658 547.54 455.081 546.71 456.305C546.44 456.698 546.257 457.159 545.967 457.536C545.07 458.715 543.477 458.768 542.229 459.44C541.23 459.969 540.42 460.951 539.361 461.261C538.727 461.429 538.073 461.485 537.424 461.427L530.865 461.208C528.786 461.14 526.35 461.261 525.142 463.157C524.75 463.852 524.471 464.619 524.319 465.423C523.813 467.591 523.401 470.047 524.461 471.95C525.729 474.217 528.51 474.678 530.905 474.829C540.16 475.402 549.44 475.2 558.668 474.224C559.916 474.046 561.176 473.988 562.433 474.051C563.432 474.141 564.41 474.391 565.396 474.579C570.369 475.524 575.457 474.972 580.478 474.413C581.326 474.368 582.163 474.169 582.954 473.824C583.348 473.644 583.697 473.359 583.971 472.995C584.245 472.63 584.436 472.197 584.527 471.731C584.736 470.175 583.434 468.853 583.292 467.289C583.191 466.186 583.663 464.955 583.123 464.018C582.921 463.742 582.695 463.489 582.448 463.263C581.544 462.213 581.281 460.679 581.058 459.244L579.877 451.485C579.844 450.938 579.644 450.421 579.31 450.019C579.062 449.819 578.776 449.687 578.474 449.634C573.331 448.335 568.061 449.521 562.953 450.246C560.324 450.677 557.664 450.827 555.01 450.692C553.863 450.609 553.417 450.458 552.56 451.296C551.703 452.135 551.244 453.2 550.171 453.903Z" fill="#3F3D56"/>
<path d="M674.346 463.24C673.444 463.805 672.476 464.229 671.471 464.501C668.822 465.368 666.176 466.272 663.535 467.213C662.833 467.408 662.173 467.763 661.599 468.256C660.681 469.162 660.445 470.643 660.377 472.033C660.29 472.799 660.371 473.577 660.613 474.3C660.93 474.977 661.394 475.554 661.963 475.977C664.986 478.538 668.934 479.331 672.727 479.331C676.519 479.331 680.285 478.613 684.077 478.5C688.659 478.364 693.363 479.089 697.769 477.654C698.61 477.306 699.484 477.067 700.374 476.944C700.966 476.934 701.557 476.976 702.142 477.072C704.505 477.334 706.892 477.09 709.174 476.354C709.861 476.184 710.5 475.829 711.036 475.319C711.302 475.062 711.492 474.721 711.581 474.341C711.67 473.961 711.654 473.559 711.536 473.189C711.293 472.577 710.672 472.131 710.665 471.459C710.697 471.136 710.772 470.82 710.888 470.522C711.165 469.487 710.719 468.407 710.409 467.387C709.538 464.471 709.68 461.117 708.121 458.586C706.562 456.055 703.701 455.013 700.981 454.612C698.771 454.263 696.524 454.334 694.334 454.824C691.871 455.413 689.57 456.645 687.154 457.43C684.351 458.333 681.421 458.643 678.516 458.344C676.586 458.163 677.248 458.503 676.593 460.316C676.129 461.525 675.345 462.546 674.346 463.24Z" fill="#3F3D56"/>
<path d="M566.516 169.797C577.324 169.797 586.086 159.988 586.086 147.889C586.086 135.789 577.324 125.98 566.516 125.98C555.708 125.98 546.946 135.789 546.946 147.889C546.946 159.988 555.708 169.797 566.516 169.797Z" fill="#FBBEBE"/>
<path d="M708.391 455.406C702.318 461.245 694.118 463.799 686.122 463.89C682.748 463.927 679.245 463.519 676.371 461.563C676.168 460.324 676.087 458.987 675.885 457.748C672.396 456.932 669.69 453.751 668.003 450.231C666.316 446.71 665.459 442.797 664.203 439.065C662.287 433.384 659.48 428.149 656.672 422.951C654.095 418.162 651.51 413.357 648.574 408.832C646.631 405.81 644.526 402.969 642.602 399.955C637.154 391.564 633.243 382.049 631.097 371.958C630.768 370.023 630.301 368.12 629.7 366.269C628.539 363.111 626.413 360.543 624.773 357.664C623.005 354.558 621.793 351.097 621.204 347.473C620.873 345.419 620.306 343.197 618.464 342.986C614.59 351.409 610.643 359.969 604.785 366.821C603.865 367.81 603.022 368.887 602.268 370.039C601.663 371.158 601.122 372.319 600.648 373.514C599.74 375.658 598.533 377.627 597.072 379.346C595.847 380.812 594.234 381.798 592.47 382.156C593.771 389.415 592.996 396.949 590.256 403.687C589.44 405.681 588.461 407.585 587.692 409.602C584.547 417.912 585.276 427.288 584.945 436.3C584.917 438.189 584.718 440.069 584.351 441.913C583.535 445.6 581.848 449.521 582.664 453.207C574.202 456.826 564.802 456.599 555.84 455.073C554.087 454.894 552.386 454.315 550.84 453.374C549.569 452.366 548.46 451.125 547.56 449.702C547.213 449.287 546.957 448.788 546.811 448.244C546.46 446.522 548.161 445.222 548.95 443.711C549.74 442.2 549.881 439.806 548.795 438.567C549.335 428.678 551.778 419.023 552.317 409.104C552.533 405.175 552.446 401.232 552.608 397.296C552.77 393.36 553.147 389.53 553.539 385.662C554.43 376.83 556.589 368.173 556.285 359.296C556.193 356.564 556.754 353.854 557.912 351.447C558.887 349.618 559.993 347.88 561.218 346.25C565.362 340.259 570.342 334.253 571.82 326.857C572.582 323.042 574.269 319.552 575.943 316.122C576.935 314.075 577.968 311.982 579.547 310.479C580.406 309.813 581.204 309.054 581.929 308.212C583.035 306.618 583.076 304.435 583.731 302.531C584.068 301.549 584.588 300.642 584.837 299.63C585.043 298.512 585.145 297.372 585.141 296.231C585.357 292.574 586.612 289.039 587.935 285.692C584.824 283.676 582.078 281.027 579.837 277.881C579.084 276.859 578.428 275.753 577.88 274.579C576.49 271.512 576.173 268.014 575.518 264.652C573.959 256.629 570.376 249.082 569.876 240.886C569.728 238.385 569.876 235.801 569.1 233.437C568.742 232.436 568.323 231.464 567.845 230.528C567.375 229.609 567.016 228.623 566.779 227.597C566.347 225.369 566.941 223.064 566.779 220.798C566.617 218.796 565.854 216.923 565.477 214.966C565.091 212.42 565.025 209.826 565.281 207.26C565.45 204.238 566.037 201.118 565.807 198.134C565.435 193.196 565.997 188.226 567.456 183.548C568.916 178.87 571.24 174.588 574.276 170.983L574.431 170.809C575.72 169.298 577.131 167.961 578.291 166.36C579.871 164.214 580.991 161.691 582.658 159.606C583.386 158.677 584.21 157.846 584.932 156.909C585.594 155.926 586.328 155.007 587.125 154.159C587.528 153.74 588.017 153.437 588.549 153.278C589.08 153.119 589.639 153.107 590.175 153.245C590.31 154.372 590.626 155.462 591.106 156.463C592.51 156.584 593.758 156.803 595.155 156.924C595.803 156.958 596.445 157.07 597.072 157.256C598.388 157.702 599.44 158.767 600.567 159.681C603.375 161.895 606.823 162.922 609.583 165.204C613.632 168.566 615.657 174.118 618.099 179.097C621.332 185.767 626.602 191.441 628.897 198.572L632.062 208.273C634.133 214.603 636.205 220.957 639.012 226.925C642.919 235.235 648.21 242.721 651.348 251.417C651.662 252.289 652.243 253.007 652.988 253.441C657.261 260.15 661.058 267.223 664.345 274.594C666.079 278.492 667.719 282.542 668.219 286.855C668.954 292.952 667.47 299.116 665.405 304.813C665.071 305.628 664.844 306.493 664.73 307.381C664.595 308.824 665.087 310.244 665.222 311.687C665.353 313.035 665.174 314.397 664.703 315.646C664.283 316.523 663.929 317.438 663.643 318.381C663.279 320.118 663.927 321.886 664.278 323.624C665.465 329.509 665.249 335.605 664.952 341.634C664.797 344.656 666.977 347.05 668.792 349.264C672.166 353.411 674.798 358.261 677.342 363.104C678.725 365.56 679.892 368.161 680.824 370.87C681.789 373.96 682.174 377.231 682.707 380.442C684.421 390.346 690.036 399.101 691.561 409.036C692.267 413.587 694.068 417.836 696.771 421.327C697.585 422.271 698.336 423.281 699.018 424.349C699.484 425.196 699.856 426.105 700.124 427.053C700.788 429.259 701.101 431.578 701.049 433.905C700.942 435.019 700.999 436.144 701.218 437.237C701.852 439.541 704.119 440.81 705.051 442.978C705.982 445.147 705.341 447.927 705.725 450.389C706.016 452.378 706.968 454.171 708.391 455.406Z" fill="#6C63FF"/>
<path d="M504.196 247.42C501.982 248.69 499.627 249.989 497.15 249.808C494.924 249.649 492.892 248.297 491.219 246.642C489.869 245.328 488.479 243.688 486.704 243.824C485.516 243.915 484.518 244.814 483.6 245.668L478.707 250.253C477.884 250.873 477.261 251.774 476.933 252.822C476.836 253.533 476.875 254.259 477.047 254.952C477.27 256.176 477.641 257.604 478.694 258.019C479.747 258.435 480.894 257.543 482.007 257.204C482.688 257.009 483.402 257.023 484.075 257.245C484.749 257.467 485.356 257.889 485.834 258.465C486.231 258.903 486.472 259.489 486.508 260.112C486.508 261.479 485.159 262.378 483.917 262.446C482.675 262.514 481.488 262.061 480.26 262.144C480.185 262.134 480.11 262.14 480.038 262.163C479.966 262.185 479.899 262.224 479.841 262.276C479.782 262.328 479.733 262.392 479.698 262.466C479.662 262.539 479.639 262.62 479.632 262.703C479.556 263.18 479.588 263.671 479.726 264.131C479.864 264.59 480.103 265.004 480.421 265.332C481.063 265.987 481.809 266.5 482.621 266.843C483.565 267.366 484.584 267.698 485.631 267.825C487.703 267.976 489.606 266.692 491.57 265.944C494.215 264.947 497.063 264.917 499.856 264.924C502.65 264.932 505.485 264.977 508.164 264.101C510.843 263.225 513.387 261.283 514.433 258.39C514.556 258.12 514.597 257.812 514.547 257.513C514.443 257.195 514.243 256.928 513.981 256.758C510.215 253.638 508.69 249.845 504.452 247.602L504.196 247.42Z" fill="#FBBEBE"/>
<path d="M556.994 134.426C555.827 134.638 554.835 135.522 553.728 136.013C552.985 136.336 552.19 136.479 551.394 136.432C550.598 136.385 549.82 136.149 549.112 135.741C548.618 135.472 548.186 135.079 547.85 134.593C546.946 133.187 547.263 131.148 547.816 129.501C550.435 121.712 557.426 116.892 564.35 116.582C571.273 116.273 578.008 119.891 583.467 125.066C585.091 126.559 586.548 128.267 587.806 130.15C590.654 134.57 591.943 140.213 592.321 145.804C592.547 148.15 592.408 150.522 591.909 152.814C591.67 153.928 591.232 154.977 590.622 155.897C590.012 156.818 589.243 157.591 588.36 158.17C586.43 159.273 584.115 158.926 582.165 157.868C580.215 156.811 578.541 155.141 576.868 153.547C576.109 152.729 575.212 152.089 574.229 151.666C573.739 151.47 573.208 151.438 572.702 151.572C572.196 151.706 571.735 152.001 571.374 152.421C570.47 153.638 570.7 155.632 569.876 156.954C569.053 158.276 567.339 158.465 565.895 158.465C564.451 158.465 562.986 158.329 562.123 157.045C561.333 155.881 561.448 154.182 561.745 152.716C562.042 151.25 562.548 149.8 562.42 148.297C562.143 145.275 559.781 143.416 559.045 140.636C558.566 138.816 559.619 138.045 559.511 136.398C559.43 134.948 558.04 134.237 556.994 134.426Z" fill="#3F3D56"/>
<path opacity="0.1" d="M618.477 342.797V342.986C614.604 351.409 610.656 359.969 604.799 366.821C603.878 367.81 603.036 368.887 602.281 370.039C601.677 371.158 601.136 372.318 600.662 373.514C599.753 375.658 598.546 377.626 597.085 379.346L592.2 382.081L607.721 291.426L618.477 342.797Z" fill="black"/>
<path opacity="0.1" d="M595.918 205.59C594.585 207.196 593.108 208.644 591.511 209.912C587.057 213.689 582.739 217.255 578.413 221.243C574.926 224.421 571.39 227.534 567.805 230.581C567.334 229.661 566.976 228.676 566.739 227.65C566.307 225.421 566.9 223.117 566.739 220.851C566.577 218.849 565.814 216.975 565.436 215.018C565.05 212.473 564.984 209.879 565.24 207.313C565.409 204.291 565.996 201.171 565.767 198.187C565.393 193.237 565.958 188.255 567.425 183.567C568.891 178.879 571.226 174.59 574.276 170.983L574.431 170.809C575.158 170.336 575.927 169.951 576.726 169.661C577.903 169.199 579.158 169.046 580.396 169.213C581.634 169.381 582.821 169.865 583.866 170.628C587.535 173.657 590.806 177.247 593.583 181.295C595.11 183.221 596.478 185.296 597.672 187.497C599.006 190.371 599.551 193.621 599.238 196.841C598.926 200.06 597.771 203.104 595.918 205.59Z" fill="black"/>
<path d="M583.218 166.851C582.171 166.094 580.982 165.617 579.744 165.456C578.507 165.295 577.252 165.454 576.078 165.922C573.727 166.87 571.617 168.443 569.93 170.507C568.246 172.43 566.788 174.585 565.591 176.921C564.444 179.187 563.567 181.56 562.42 183.818C560.395 187.86 557.75 191.426 555.091 194.961C553.438 197.16 551.764 199.388 549.645 201.005C547.526 202.622 545.158 203.611 543.72 205.855C543.268 206.565 542.944 207.366 542.499 208.084C541.088 210.395 538.693 211.634 536.607 213.183C530.629 217.64 526.91 225.059 521.323 230.113C518.914 232.289 516.194 233.996 513.825 236.217C511.619 238.279 509.776 240.75 507.577 242.865C505.377 244.98 502.792 246.725 499.924 246.922C501.841 251.704 504.128 256.395 507.415 260.12C510.701 263.844 515.627 266.224 520.115 264.766C521.707 264.252 523.266 263.164 523.874 261.442C524.065 260.556 524.331 259.694 524.67 258.866C525.121 258.201 525.706 257.665 526.377 257.302C544.392 245.53 561.564 232.212 577.738 217.467C582.077 213.508 586.383 209.965 590.836 206.135C592.433 204.867 593.91 203.419 595.243 201.813C597.101 199.33 598.261 196.288 598.578 193.068C598.895 189.849 598.354 186.597 597.025 183.72C595.83 181.52 594.462 179.444 592.935 177.518C590.158 173.47 586.887 169.88 583.218 166.851Z" fill="#6C63FF"/>
<g opacity="0.1">
<path opacity="0.1" d="M567.245 155.421C565.895 155.421 564.336 155.285 563.472 154C562.689 152.837 562.797 151.137 563.094 149.672C563.391 148.206 563.897 146.755 563.769 145.252C563.493 142.23 561.131 140.372 560.395 137.592C559.916 135.771 560.969 135.001 560.861 133.354C560.766 131.926 559.383 131.216 558.337 131.405C557.169 131.616 556.177 132.5 555.071 132.991C554.328 133.314 553.532 133.457 552.737 133.41C551.941 133.363 551.163 133.128 550.455 132.719C549.961 132.45 549.529 132.057 549.193 131.571C548.289 130.166 548.606 128.126 549.159 126.479C549.159 126.419 549.206 126.366 549.227 126.305C548.662 127.316 548.188 128.386 547.81 129.501C547.256 131.148 546.939 133.187 547.843 134.593C548.179 135.079 548.611 135.472 549.105 135.741C549.814 136.149 550.591 136.385 551.387 136.432C552.183 136.479 552.978 136.336 553.721 136.013C554.828 135.522 555.82 134.638 556.987 134.426C558.033 134.237 559.417 134.948 559.511 136.375C559.619 138.022 558.566 138.793 559.045 140.614C559.767 143.394 562.129 145.282 562.42 148.274C562.555 149.785 562.062 151.235 561.745 152.693C561.428 154.151 561.34 155.859 562.123 157.022C562.986 158.306 564.532 158.427 565.895 158.442C567.258 158.458 569.013 158.352 569.876 156.931C570.249 156.218 570.494 155.43 570.598 154.612C569.681 155.345 568.399 155.436 567.245 155.421Z" fill="black"/>
<path opacity="0.1" d="M589.71 155.148C587.78 156.251 585.465 155.904 583.515 154.846C581.564 153.789 579.891 152.119 578.217 150.525C577.459 149.707 576.562 149.067 575.579 148.644C575.088 148.448 574.558 148.416 574.052 148.55C573.545 148.684 573.084 148.979 572.724 149.399C572.266 150.158 571.976 151.028 571.881 151.938C572.232 151.706 572.623 151.562 573.028 151.513C573.433 151.465 573.842 151.515 574.229 151.658C575.212 152.081 576.109 152.721 576.868 153.539C578.541 155.133 580.242 156.811 582.165 157.861C584.088 158.911 586.43 159.266 588.36 158.163C590.067 157.044 591.311 155.217 591.822 153.079C591.267 153.939 590.545 154.647 589.71 155.148Z" fill="black"/>
</g>
<path d="M421.766 479.912C432.947 479.912 442.01 469.766 442.01 457.249C442.01 444.732 432.947 434.585 421.766 434.585C410.585 434.585 401.521 444.732 401.521 457.249C401.521 469.766 410.585 479.912 421.766 479.912Z" fill="#3F3D56"/>
<path opacity="0.1" d="M421.766 479.912C432.947 479.912 442.01 469.766 442.01 457.249C442.01 444.732 432.947 434.585 421.766 434.585C410.585 434.585 401.521 444.732 401.521 457.249C401.521 469.766 410.585 479.912 421.766 479.912Z" fill="black"/>
<path d="M421.766 471.603C428.847 471.603 434.587 465.177 434.587 457.249C434.587 449.322 428.847 442.896 421.766 442.896C414.685 442.896 408.944 449.322 408.944 457.249C408.944 465.177 414.685 471.603 421.766 471.603Z" fill="#65617D"/>
<path opacity="0.1" d="M421.766 471.603C428.847 471.603 434.587 465.177 434.587 457.249C434.587 449.322 428.847 442.896 421.766 442.896C414.685 442.896 408.944 449.322 408.944 457.249C408.944 465.177 414.685 471.603 421.766 471.603Z" fill="black"/>
<path d="M406.245 421.742L419.525 455.36C419.723 455.864 420.045 456.294 420.454 456.6C420.863 456.905 421.342 457.073 421.833 457.085C422.325 457.096 422.809 456.949 423.229 456.662C423.648 456.375 423.986 455.96 424.202 455.466L439.986 419.476L406.245 421.742Z" fill="#3F3D56"/>
<path opacity="0.1" d="M406.245 421.742L419.525 455.36C419.723 455.864 420.045 456.294 420.454 456.6C420.863 456.905 421.342 457.073 421.833 457.085C422.325 457.096 422.809 456.949 423.229 456.662C423.648 456.375 423.986 455.96 424.202 455.466L439.986 419.476L406.245 421.742Z" fill="black"/>
<path d="M295.573 479.912C306.754 479.912 315.818 469.766 315.818 457.249C315.818 444.732 306.754 434.585 295.573 434.585C284.393 434.585 275.329 444.732 275.329 457.249C275.329 469.766 284.393 479.912 295.573 479.912Z" fill="#3F3D56"/>
<path opacity="0.1" d="M295.573 479.912C306.754 479.912 315.818 469.766 315.818 457.249C315.818 444.732 306.754 434.585 295.573 434.585C284.393 434.585 275.329 444.732 275.329 457.249C275.329 469.766 284.393 479.912 295.573 479.912Z" fill="black"/>
<path d="M295.573 471.603C302.655 471.603 308.395 465.177 308.395 457.249C308.395 449.322 302.655 442.896 295.573 442.896C288.492 442.896 282.752 449.322 282.752 457.249C282.752 465.177 288.492 471.603 295.573 471.603Z" fill="#65617D"/>
<path opacity="0.1" d="M295.573 471.603C302.655 471.603 308.395 465.177 308.395 457.249C308.395 449.322 302.655 442.896 295.573 442.896C288.492 442.896 282.752 449.322 282.752 457.249C282.752 465.177 288.492 471.603 295.573 471.603Z" fill="black"/>
<path d="M280.052 421.742L293.333 455.36C293.531 455.864 293.853 456.294 294.262 456.6C294.671 456.905 295.15 457.073 295.641 457.085C296.133 457.096 296.617 456.949 297.037 456.662C297.456 456.375 297.794 455.96 298.01 455.466L313.794 419.476L280.052 421.742Z" fill="#3F3D56"/>
<path opacity="0.1" d="M280.052 421.742L293.333 455.36C293.531 455.864 293.853 456.294 294.262 456.6C294.671 456.905 295.15 457.073 295.641 457.085C296.133 457.096 296.617 456.949 297.037 456.662C297.456 456.375 297.794 455.96 298.01 455.466L313.794 419.476L280.052 421.742Z" fill="black"/>
<path d="M487.467 259.885C487.411 259.313 487.228 258.765 486.935 258.293C486.641 257.82 486.246 257.438 485.786 257.181C485.399 256.996 484.983 256.9 484.562 256.899C484.141 256.899 483.724 256.993 483.336 257.176C482.948 257.359 482.597 257.628 482.304 257.966C482.011 258.304 481.781 258.705 481.629 259.145L470.016 291.426L466.642 436.474H472.04L474.065 291.735L487.183 262.076C487.482 261.397 487.581 260.631 487.467 259.885Z" fill="#3F3D56"/>
<path d="M248.673 425.142L266.893 412.299L463.605 410.41L468.666 425.142H248.673Z" fill="#6C63FF"/>
<path d="M248.673 438.74V425.142L472.229 422.725L472.013 431.941H252.722V438.74H248.673Z" fill="#3F3D56"/>
<path d="M277.016 487.845C288.197 487.845 297.26 477.698 297.26 465.181C297.26 452.665 288.197 442.518 277.016 442.518C265.835 442.518 256.771 452.665 256.771 465.181C256.771 477.698 265.835 487.845 277.016 487.845Z" fill="#3F3D56"/>
<path d="M277.016 479.535C284.097 479.535 289.837 473.108 289.837 465.181C289.837 457.254 284.097 450.827 277.016 450.827C269.935 450.827 264.194 457.254 264.194 465.181C264.194 473.108 269.935 479.535 277.016 479.535Z" fill="#65617D"/>
<path d="M261.495 429.675L274.775 463.293C274.973 463.796 275.295 464.227 275.704 464.532C276.113 464.838 276.592 465.006 277.083 465.017C277.575 465.028 278.059 464.882 278.479 464.595C278.898 464.308 279.236 463.893 279.452 463.398L295.236 427.408L261.495 429.675Z" fill="#3F3D56"/>
<path d="M434.25 487.845C445.431 487.845 454.495 477.698 454.495 465.181C454.495 452.665 445.431 442.518 434.25 442.518C423.069 442.518 414.005 452.665 414.005 465.181C414.005 477.698 423.069 487.845 434.25 487.845Z" fill="#3F3D56"/>
<path d="M434.25 479.535C441.331 479.535 447.072 473.108 447.072 465.181C447.072 457.254 441.331 450.827 434.25 450.827C427.169 450.827 421.428 457.254 421.428 465.181C421.428 473.108 427.169 479.535 434.25 479.535Z" fill="#65617D"/>
<path d="M418.729 429.675L432.01 463.293C432.207 463.796 432.53 464.227 432.939 464.532C433.348 464.838 433.826 465.006 434.318 465.017C434.809 465.028 435.293 464.882 435.713 464.595C436.133 464.308 436.47 463.893 436.686 463.398L452.47 427.408L418.729 429.675Z" fill="#3F3D56"/>
<path d="M358.332 365.838H273.979V417.965H358.332V365.838Z" fill="#65617D"/>
<path opacity="0.1" d="M329.315 374.904H303.671V380.948H329.315V374.904Z" fill="black"/>
<path opacity="0.1" d="M326.109 375.659H306.877V380.192H326.109V375.659Z" fill="black"/>
<path d="M444.035 365.838H359.682V417.965H444.035V365.838Z" fill="#65617D"/>
<path opacity="0.1" d="M415.017 374.904H389.374V380.948H415.017V374.904Z" fill="black"/>
<path opacity="0.1" d="M411.812 375.659H392.58V380.192H411.812V375.659Z" fill="black"/>
<path d="M358.332 312.201H273.979V364.328H358.332V312.201Z" fill="#65617D"/>
<path opacity="0.1" d="M329.315 321.267H303.671V327.31H329.315V321.267Z" fill="black"/>
<path opacity="0.1" d="M326.109 322.021H306.877V326.554H326.109V322.021Z" fill="black"/>
<path d="M444.035 312.201H359.682V364.328H444.035V312.201Z" fill="#65617D"/>
<path opacity="0.1" d="M415.017 321.267H389.374V327.31H415.017V321.267Z" fill="black"/>
<path opacity="0.1" d="M411.812 322.021H392.58V326.554H411.812V322.021Z" fill="black"/>
<path d="M358.332 257.808H273.979V309.934H358.332V257.808Z" fill="#65617D"/>
<path opacity="0.1" d="M329.315 266.873H303.671V272.917H329.315V266.873Z" fill="black"/>
<path opacity="0.1" d="M326.109 267.629H306.877V272.162H326.109V267.629Z" fill="black"/>
<path d="M444.035 257.808H359.682V309.934H444.035V257.808Z" fill="#65617D"/>
<path opacity="0.1" d="M415.017 266.873H389.374V272.917H415.017V266.873Z" fill="black"/>
<path opacity="0.1" d="M411.812 267.629H392.58V272.162H411.812V267.629Z" fill="black"/>
<path d="M444.035 203.415H359.682V255.542H444.035V203.415Z" fill="#65617D"/>
<path opacity="0.1" d="M415.017 212.48H389.374V218.524H415.017V212.48Z" fill="black"/>
<path opacity="0.1" d="M411.812 213.235H392.58V217.768H411.812V213.235Z" fill="black"/>
</g>
<defs>
<linearGradient id="paint0_linear" x1="592.382" y1="479.263" x2="592.382" y2="114.271" gradientUnits="userSpaceOnUse">
<stop stop-color="#808080" stop-opacity="0.25"/>
<stop offset="0.54" stop-color="#808080" stop-opacity="0.12"/>
<stop offset="1" stop-color="#808080" stop-opacity="0.1"/>
</linearGradient>
<clipPath id="clip0">
<rect width="772" height="492" fill="white"/>
</clipPath>
</defs>
</svg>
