<svg width="686" height="540" viewBox="0 0 686 540" fill="none" xmlns="http://www.w3.org/2000/svg">
<g clip-path="url(#clip0)">
<path d="M31.876 514.563C41.3915 531.203 61.5869 538.347 61.5869 538.347C61.5869 538.347 66.3545 518.511 56.839 501.871C47.3235 485.23 27.1282 478.087 27.1282 478.087C27.1282 478.087 22.3605 497.923 31.876 514.563Z" fill="#2F2E41"/>
<path d="M38.4164 509.089C55.5958 518.835 62.2122 538.193 62.2122 538.193C62.2122 538.193 40.9752 541.75 23.7957 532.004C6.61634 522.258 0 502.899 0 502.899C0 502.899 21.237 499.342 38.4164 509.089Z" fill="#6C63FF"/>
<path d="M423.581 25.9238H316.393V27.3677H423.581V25.9238Z" fill="#F2F2F2"/>
<path d="M394.487 27.0068H392.956V40.363H394.487V27.0068Z" fill="#F2F2F2"/>
<path d="M347.784 27.0068H346.253V40.363H347.784V27.0068Z" fill="#F2F2F2"/>
<path d="M477.94 95.231H370.753V96.6749H477.94V95.231Z" fill="#F2F2F2"/>
<path d="M401.378 82.2358H399.846V95.592H401.378V82.2358Z" fill="#F2F2F2"/>
<path d="M448.081 82.2358H446.55V95.592H448.081V82.2358Z" fill="#F2F2F2"/>
<path d="M620.346 127.719H513.159V129.163H620.346V127.719Z" fill="#F2F2F2"/>
<path d="M543.784 114.724H542.253V128.08H543.784V114.724Z" fill="#F2F2F2"/>
<path d="M590.487 114.724H588.956V128.08H590.487V114.724Z" fill="#F2F2F2"/>
<path d="M609.628 462.705H502.44V464.149H609.628V462.705Z" fill="#F2F2F2"/>
<path d="M533.065 449.71H531.534V463.066H533.065V449.71Z" fill="#F2F2F2"/>
<path d="M579.768 449.71H578.237V463.066H579.768V449.71Z" fill="#F2F2F2"/>
<path d="M426.643 230.958H319.456V232.402H426.643V230.958Z" fill="#F2F2F2"/>
<path d="M350.081 217.963H348.55V231.32H350.081V217.963Z" fill="#F2F2F2"/>
<path d="M396.784 217.963H395.253V231.32H396.784V217.963Z" fill="#F2F2F2"/>
<path d="M460.331 404.949H353.143V406.393H460.331V404.949Z" fill="#F2F2F2"/>
<path d="M383.768 391.954H382.237V405.31H383.768V391.954Z" fill="#F2F2F2"/>
<path d="M430.471 391.954H428.94V405.31H430.471V391.954Z" fill="#F2F2F2"/>
<path d="M631.831 352.246H524.643V353.69H631.831V352.246Z" fill="#F2F2F2"/>
<path d="M555.268 339.251H553.737V352.607H555.268V339.251Z" fill="#F2F2F2"/>
<path d="M601.971 339.251H600.44V352.607H601.971V339.251Z" fill="#F2F2F2"/>
<path d="M277.202 506.944H95.9129V505.714H275.898V446.067H111.153L103.15 430.345L104.326 429.812L111.974 444.836H277.202V506.944Z" fill="#2F2E41"/>
<path d="M120.041 537.075C127.604 537.075 133.736 531.293 133.736 524.161C133.736 517.03 127.604 511.248 120.041 511.248C112.478 511.248 106.347 517.03 106.347 524.161C106.347 531.293 112.478 537.075 120.041 537.075Z" fill="#3F3D56"/>
<path d="M255.03 537.075C262.593 537.075 268.725 531.293 268.725 524.161C268.725 517.03 262.593 511.248 255.03 511.248C247.467 511.248 241.336 517.03 241.336 524.161C241.336 531.293 247.467 537.075 255.03 537.075Z" fill="#3F3D56"/>
<path d="M414.147 257.9C418.829 257.9 422.625 254.321 422.625 249.906C422.625 245.491 418.829 241.912 414.147 241.912C409.465 241.912 405.67 245.491 405.67 249.906C405.67 254.321 409.465 257.9 414.147 257.9Z" fill="#3F3D56"/>
<path d="M296.592 425.774H92.8219L48.7308 289.876H341.999L341.732 290.676L296.592 425.774ZM93.7867 424.544H295.635L340.221 291.106H50.4936L93.7867 424.544Z" fill="#2F2E41"/>
<path d="M280.686 418.702H101.707L62.9803 298.177H320.568L320.334 298.887L280.686 418.702Z" fill="#F2F2F2"/>
<path d="M345.653 277.735L344.392 277.42L352.998 246.831H403.062V248.061H354.002L345.653 277.735Z" fill="#2F2E41"/>
<path d="M327.344 331.076H62.9791V332.306H327.344V331.076Z" fill="#2F2E41"/>
<path d="M312.205 376.386H77.6795V377.616H312.205V376.386Z" fill="#2F2E41"/>
<path d="M196.013 290.491H194.709V425.159H196.013V290.491Z" fill="#2F2E41"/>
<path d="M254.406 290.453L245.044 425.117L246.346 425.198L255.708 290.533L254.406 290.453Z" fill="#2F2E41"/>
<path d="M136.343 290.451L135.041 290.531L144.349 425.199L145.651 425.119L136.343 290.451Z" fill="#2F2E41"/>
<path d="M686 537.855H0V539.299H686V537.855Z" fill="#2F2E41"/>
<path d="M455.861 44.6716C455.861 44.6716 467.054 74.7093 460.166 79.3305C453.279 83.9517 483.411 121.691 483.411 121.691L519.571 112.449L499.769 80.8709C499.769 80.8709 497.186 49.2927 497.186 44.6715C497.186 40.0503 455.861 44.6716 455.861 44.6716Z" fill="#A0616A"/>
<path opacity="0.1" d="M455.861 44.6716C455.861 44.6716 467.054 74.7093 460.166 79.3305C453.279 83.9517 483.411 121.691 483.411 121.691L519.571 112.449L499.769 80.8709C499.769 80.8709 497.186 49.2927 497.186 44.6715C497.186 40.0503 455.861 44.6716 455.861 44.6716Z" fill="black"/>
<path d="M437.075 258.787C437.075 258.787 433.808 297.297 437.075 317.322C440.342 337.347 445.243 392.802 445.243 392.802C445.243 392.802 445.243 497.549 463.212 499.089C481.182 500.63 494.25 502.17 495.884 496.008C497.518 489.847 487.716 486.766 492.617 483.685C497.517 480.604 499.151 469.822 492.617 457.498C486.082 445.175 492.617 320.403 492.617 320.403L523.655 398.963C523.655 398.963 526.922 463.66 530.189 472.902C533.456 482.145 526.922 499.089 538.357 500.63C549.792 502.17 562.861 492.928 569.395 489.847C575.929 486.766 559.593 486.766 562.861 485.226C566.128 483.685 575.929 479.064 572.662 477.524C569.395 475.983 566.128 402.044 566.128 402.044C566.128 402.044 557.143 244.153 545.708 237.992C534.273 231.83 526.922 242.443 526.922 242.443L437.075 258.787Z" fill="#2F2E41"/>
<path d="M466.48 492.927V505.25C466.48 505.25 451.777 538.749 466.48 538.749C481.182 538.749 492.617 542.22 492.617 537.599V496.008L466.48 492.927Z" fill="#2F2E41"/>
<path d="M562.861 492.905V505.228C562.861 505.228 577.563 538.727 562.861 538.727C548.159 538.727 536.724 542.198 536.724 537.577V495.986L562.861 492.905Z" fill="#2F2E41"/>
<path d="M478.731 67.0071C494.971 67.0071 508.136 54.5932 508.136 39.2799C508.136 23.9666 494.971 11.5527 478.731 11.5527C462.492 11.5527 449.327 23.9666 449.327 39.2799C449.327 54.5932 462.492 67.0071 478.731 67.0071Z" fill="#A0616A"/>
<path d="M469.747 90.8833C469.747 90.8833 477.915 113.989 490.983 109.368L504.052 104.747L526.922 252.625C526.922 252.625 508.953 277.271 482.815 261.867C456.678 246.463 469.747 90.8833 469.747 90.8833Z" fill="#6C63FF"/>
<path d="M492.617 86.2622L499.968 71.6284C499.968 71.6284 543.258 90.8834 549.792 97.045C556.326 103.207 556.326 112.449 556.326 112.449L544.891 150.959C544.891 150.959 548.159 235.681 548.159 238.762C548.159 241.842 559.594 258.787 551.426 252.625C543.258 246.464 541.624 240.302 535.09 249.544C528.556 258.787 513.853 269.57 513.853 269.57L492.617 86.2622Z" fill="#3F3D56"/>
<path d="M549.792 197.171L544.891 240.302C544.891 240.302 515.487 264.948 522.021 266.489C528.556 268.029 531.823 261.868 531.823 261.868C531.823 261.868 543.258 272.65 549.792 266.489C556.326 260.327 572.662 201.792 572.662 201.792L549.792 197.171Z" fill="#A0616A"/>
<path d="M479.358 0.0937608C472.839 -0.12598 465.863 -0.234678 460.367 3.07774C457.838 4.7401 455.62 6.78747 453.804 9.13603C448.451 15.517 443.826 23.5457 445.814 31.4627L448.124 30.6134C448.124 32.7267 447.625 34.8135 446.665 36.723C446.99 35.8313 448.079 37.2728 447.788 38.1747L445.244 46.0445C449.426 44.5989 454.628 47.5259 455.264 51.6827C455.555 42.5419 456.561 32.0603 464.424 26.708C468.39 24.0088 473.409 23.1849 478.237 22.4532C482.692 21.7781 487.362 21.1344 491.629 22.5173C495.896 23.9002 499.529 28.015 498.562 32.1705C500.529 31.5314 502.73 32.8243 503.702 34.5591C504.674 36.2939 504.725 38.3403 504.754 40.3023C506.852 41.6999 509.238 38.9247 510.093 36.6412C512.099 31.2812 513.882 25.5755 512.801 19.9836C511.721 14.3916 506.888 9.04762 500.86 9.02866C501.592 8.27085 501.983 7.27439 501.949 6.25005L496.981 5.8542C498.242 5.68579 499.402 5.10911 500.262 4.22292C498.267 6.29271 482.583 0.202494 479.358 0.0937608Z" fill="#2F2E41"/>
<path d="M477.915 81.641C477.915 81.641 464.616 69.3528 459.83 70.1055C455.045 70.8582 448.51 81.641 448.51 81.641C448.51 81.641 409.304 93.9642 410.938 106.287C412.571 118.611 430.541 178.686 430.541 178.686C430.541 178.686 445.243 251.085 432.174 258.787C419.106 266.489 494.25 286.514 495.884 277.271C497.518 268.029 500.785 175.605 495.884 161.742C490.983 147.878 477.915 81.641 477.915 81.641Z" fill="#3F3D56"/>
<path d="M535.09 106.288H555.289C555.289 106.288 569.395 164.823 571.029 170.984C572.662 177.146 575.929 206.413 574.296 206.413C572.662 206.413 539.991 200.252 539.991 204.873L535.09 106.288Z" fill="#3F3D56"/>
<path d="M534.406 251.239H457.078C449.532 218.506 448.902 186.88 457.078 156.664H534.406C521.927 186.336 521.147 217.746 534.406 251.239Z" fill="#F2F2F2"/>
<path d="M425.64 211.035L448.51 220.277C448.51 220.277 492.617 226.439 492.617 209.494C492.617 192.55 448.51 201.792 448.51 201.792L433.807 197.359L425.64 211.035Z" fill="#A0616A"/>
<path d="M430.541 97.0449L410.938 101.666L396.236 183.307C396.236 183.307 391.335 204.873 399.503 206.413C407.671 207.954 430.541 220.277 430.541 220.277C430.541 220.277 433.808 197.171 440.342 197.171L424.006 184.848L433.808 130.934L430.541 97.0449Z" fill="#3F3D56"/>
<path d="M153.315 254.783H46.1278V256.227H153.315V254.783Z" fill="#F2F2F2"/>
<path d="M76.7528 241.788H75.2215V255.144H76.7528V241.788Z" fill="#F2F2F2"/>
<path d="M123.456 241.788H121.925V255.144H123.456V241.788Z" fill="#F2F2F2"/>
<path d="M190.831 41.085H83.6434V42.5289H190.831V41.085Z" fill="#F2F2F2"/>
<path d="M161.737 42.1675H160.206V55.5236H161.737V42.1675Z" fill="#F2F2F2"/>
<path d="M115.034 42.1675H113.503V55.5236H115.034V42.1675Z" fill="#F2F2F2"/>
<path d="M298.784 183.31H191.597V184.754H298.784V183.31Z" fill="#F2F2F2"/>
<path d="M269.69 184.393H268.159V197.749H269.69V184.393Z" fill="#F2F2F2"/>
<path d="M222.987 184.393H221.456V197.749H222.987V184.393Z" fill="#F2F2F2"/>
<path d="M116.565 182.587H9.37775V184.031H116.565V182.587Z" fill="#F2F2F2"/>
<path d="M87.4715 183.67H85.9402V197.027H87.4715V183.67Z" fill="#F2F2F2"/>
<path d="M40.7684 183.67H39.2371V197.027H40.7684V183.67Z" fill="#F2F2F2"/>
<path d="M245.19 110.392H138.003V111.836H245.19V110.392Z" fill="#F2F2F2"/>
<path d="M168.628 97.397H167.097V110.753H168.628V97.397Z" fill="#F2F2F2"/>
<path d="M215.331 97.397H213.8V110.753H215.331V97.397Z" fill="#F2F2F2"/>
</g>
<defs>
<clipPath id="clip0">
<rect width="686" height="540" fill="white"/>
</clipPath>
</defs>
</svg>
