<svg width="673" height="520" viewBox="0 0 673 520" fill="none" xmlns="http://www.w3.org/2000/svg">
<g clip-path="url(#clip0)">
<path d="M29.8464 505.167C50.8238 520.256 78.0089 521.013 104.286 519.16C107.955 518.901 111.599 518.598 115.208 518.271C115.23 518.265 115.259 518.267 115.281 518.261C115.454 518.245 115.628 518.228 115.794 518.219C116.539 518.149 117.285 518.079 118.023 518.009L117.848 518.341L117.301 519.372C117.498 519.027 117.694 518.689 117.891 518.344C117.949 518.241 118.014 518.138 118.071 518.034C124.878 506.207 131.63 493.945 133.352 480.439C135.132 466.421 130.129 450.548 117.773 443.658C116.152 442.757 114.436 442.039 112.656 441.518C111.917 441.294 111.168 441.112 110.41 440.951C105.776 439.924 100.951 440.147 96.432 441.599C91.9128 443.05 87.8624 445.677 84.6973 449.21C81.5321 452.742 79.3664 457.053 78.4229 461.698C77.4794 466.343 77.7921 471.156 79.3289 475.64C68.8525 464.914 70.8068 447.514 74.4206 432.972C78.0415 418.431 82.4248 402.249 75.0603 389.188C70.9666 381.918 63.7674 377.407 55.6882 375.59C55.4403 375.536 55.1928 375.483 54.9445 375.437C45.3183 373.49 35.3109 375.241 26.9212 380.339C11.473 390.059 3.53867 408.488 0.963517 426.54C-3.18555 455.59 5.99639 488.011 29.8464 505.167Z" fill="#F2F2F2"/>
<path d="M36.6193 458.599C37.2282 465.007 38.7699 471.292 41.1955 477.255C43.4309 482.533 46.444 487.447 50.1349 491.834C57.6744 500.89 67.6437 507.698 78.4707 512.234C86.7492 515.619 95.4232 517.946 104.286 519.16C107.955 518.901 111.599 518.598 115.208 518.271C115.23 518.265 115.259 518.267 115.281 518.261C115.454 518.245 115.628 518.228 115.794 518.219C116.539 518.149 117.285 518.079 118.023 518.009L117.848 518.342L117.301 519.372C117.498 519.027 117.694 518.689 117.891 518.345C117.949 518.241 118.014 518.138 118.071 518.034C111.426 511.424 106.465 503.321 103.604 494.402C100.742 485.484 100.063 476.01 101.623 466.776C103.256 457.606 107.036 448.952 112.656 441.518C111.917 441.294 111.168 441.112 110.41 440.951C108.275 443.866 106.401 446.964 104.812 450.209C99.1103 461.78 97.2912 474.876 99.6242 487.559C101.793 499.037 107.197 509.658 115.201 518.177C114.5 518.127 113.792 518.07 113.1 518.007C99.9828 516.898 86.8926 514.082 74.9955 508.315C64.8261 503.505 55.9973 496.273 49.2867 487.254C42.0814 477.332 38.9064 465.398 38.361 453.268C37.7827 440.282 39.4702 427.069 42.4384 414.44C45.4692 401.494 50.0754 388.966 56.1542 377.137C56.2901 376.868 56.3175 376.558 56.2308 376.27C56.1441 375.982 55.9498 375.739 55.6882 375.59C55.4701 375.443 55.2029 375.388 54.9445 375.437C54.818 375.47 54.7008 375.532 54.6015 375.617C54.5021 375.702 54.4233 375.808 54.3708 375.928C53.6209 377.389 52.885 378.851 52.177 380.33C46.2808 392.646 41.9399 405.646 39.254 419.031C36.6465 431.943 35.2548 445.451 36.6193 458.599Z" fill="white"/>
<path d="M659.503 447.073H312.56C308.982 447.069 305.552 445.648 303.021 443.122C300.491 440.596 299.068 437.17 299.064 433.598V13.4756C299.068 9.90289 300.491 6.47765 303.021 3.95136C305.552 1.42506 308.982 0.00402197 312.56 0H659.503C663.082 0.00402197 666.512 1.42506 669.042 3.95136C671.573 6.47765 672.996 9.90289 673 13.4756V433.598C672.996 437.17 671.573 440.596 669.042 443.122C666.512 445.648 663.082 447.069 659.503 447.073ZM312.56 1.58537C309.403 1.58893 306.376 2.84279 304.144 5.07187C301.911 7.30095 300.655 10.3232 300.652 13.4756V433.598C300.655 436.75 301.911 439.772 304.144 442.001C306.376 444.23 309.403 445.484 312.56 445.488H659.503C662.661 445.484 665.688 444.23 667.92 442.001C670.153 439.772 671.409 436.75 671.412 433.598V13.4756C671.409 10.3232 670.153 7.30095 667.92 5.07187C665.688 2.84279 662.661 1.58893 659.503 1.58537H312.56Z" fill="#3F3D56"/>
<path d="M672.206 32.9679H299.858V34.5533H672.206V32.9679Z" fill="#3F3D56"/>
<path d="M318.118 23.7805C321.626 23.7805 324.469 20.9413 324.469 17.439C324.469 13.9367 321.626 11.0976 318.118 11.0976C314.61 11.0976 311.767 13.9367 311.767 17.439C311.767 20.9413 314.61 23.7805 318.118 23.7805Z" fill="#3F3D56"/>
<path d="M337.966 23.7805C341.474 23.7805 344.317 20.9413 344.317 17.439C344.317 13.9367 341.474 11.0976 337.966 11.0976C334.458 11.0976 331.615 13.9367 331.615 17.439C331.615 20.9413 334.458 23.7805 337.966 23.7805Z" fill="#3F3D56"/>
<path d="M357.814 23.7805C361.322 23.7805 364.165 20.9413 364.165 17.439C364.165 13.9367 361.322 11.0976 357.814 11.0976C354.306 11.0976 351.463 13.9367 351.463 17.439C351.463 20.9413 354.306 23.7805 357.814 23.7805Z" fill="#3F3D56"/>
<path d="M605.723 95.9146H358.02C355.283 95.9146 352.658 94.8289 350.722 92.8964C348.787 90.9639 347.699 88.3428 347.699 85.6097C347.699 82.8767 348.787 80.2556 350.722 78.3231C352.658 76.3906 355.283 75.3049 358.02 75.3049H605.723C608.46 75.3049 611.086 76.3906 613.021 78.3231C614.957 80.2556 616.044 82.8767 616.044 85.6097C616.044 88.3428 614.957 90.9639 613.021 92.8964C611.086 94.8289 608.46 95.9146 605.723 95.9146ZM358.02 76.8902C355.704 76.8902 353.483 77.8089 351.845 79.4441C350.207 81.0794 349.287 83.2972 349.287 85.6097C349.287 87.9223 350.207 90.1401 351.845 91.7754C353.483 93.4106 355.704 94.3293 358.02 94.3293H605.723C608.039 94.3293 610.261 93.4106 611.898 91.7754C613.536 90.1401 614.456 87.9223 614.456 85.6097C614.456 83.2972 613.536 81.0794 611.898 79.4441C610.261 77.8089 608.039 76.8902 605.723 76.8902H358.02Z" fill="#3F3D56"/>
<path d="M450.703 240.976H353.05C349.472 240.972 346.042 239.551 343.511 237.024C340.981 234.498 339.558 231.073 339.554 227.5V147.439C339.558 143.866 340.981 140.441 343.511 137.915C346.042 135.388 349.472 133.967 353.05 133.963H450.703C454.281 133.967 457.711 135.388 460.242 137.915C462.772 140.441 464.195 143.866 464.199 147.439V227.5C464.195 231.073 462.772 234.498 460.242 237.024C457.711 239.551 454.281 240.972 450.703 240.976ZM353.05 135.549C349.893 135.552 346.866 136.806 344.634 139.035C342.401 141.264 341.145 144.287 341.142 147.439V227.5C341.145 230.652 342.401 233.675 344.634 235.904C346.866 238.133 349.893 239.387 353.05 239.39H450.703C453.86 239.387 456.887 238.133 459.119 235.904C461.352 233.675 462.608 230.652 462.611 227.5V147.439C462.608 144.287 461.352 141.264 459.119 139.035C456.887 136.806 453.86 135.552 450.703 135.549H353.05Z" fill="#3F3D56"/>
<path d="M521.361 138.427H619.013C625.754 138.427 631.216 143.882 631.216 150.61V230.671C631.216 237.398 625.754 242.854 619.013 242.854H521.361C514.621 242.854 509.159 237.398 509.159 230.671V150.61C509.159 143.882 514.621 138.427 521.361 138.427Z" fill="white" stroke="black"/>
<path d="M450.703 390H353.05C349.472 389.996 346.042 388.575 343.511 386.049C340.981 383.522 339.558 380.097 339.554 376.524V296.463C339.558 292.891 340.981 289.465 343.511 286.939C346.042 284.413 349.472 282.992 353.05 282.988H450.703C454.281 282.992 457.711 284.413 460.242 286.939C462.772 289.465 464.195 292.891 464.199 296.463V376.524C464.195 380.097 462.772 383.522 460.242 386.049C457.711 388.575 454.281 389.996 450.703 390ZM353.05 284.573C349.893 284.577 346.866 285.831 344.634 288.06C342.401 290.289 341.145 293.311 341.142 296.463V376.524C341.145 379.677 342.401 382.699 344.634 384.928C346.866 387.157 349.893 388.411 353.05 388.415H450.703C453.86 388.411 456.887 387.157 459.119 384.928C461.352 382.699 462.608 379.677 462.611 376.524V296.463C462.608 293.311 461.352 290.289 459.119 288.06C456.887 285.831 453.86 284.577 450.703 284.573H353.05Z" fill="#3F3D56"/>
<path d="M521.361 287.451H619.013C625.754 287.451 631.216 292.906 631.216 299.634V379.695C631.216 386.423 625.754 391.878 619.013 391.878H521.361C514.621 391.878 509.159 386.423 509.159 379.695V299.634C509.159 292.906 514.621 287.451 521.361 287.451Z" stroke="black"/>
<path d="M377.576 221.613C377.558 221.613 377.541 221.612 377.523 221.611L366.416 221.201C366.07 221.19 365.739 221.055 365.485 220.82C365.23 220.585 365.07 220.266 365.032 219.922C364.268 213.112 361.122 178.409 374.301 163.985C376.167 161.902 378.473 160.26 381.053 159.178C383.633 158.096 386.422 157.601 389.217 157.729C389.331 157.736 389.444 157.712 389.545 157.659C389.646 157.607 389.731 157.528 389.79 157.431L392.479 153.212C392.626 152.983 392.834 152.8 393.08 152.684C393.326 152.568 393.6 152.522 393.87 152.553C396.026 152.813 407.015 154.041 411.635 152.705C411.908 152.625 412.198 152.627 412.47 152.71C412.741 152.794 412.982 152.955 413.162 153.174L416.693 157.483C416.754 157.561 416.832 157.623 416.922 157.665C417.012 157.706 417.11 157.726 417.209 157.721C419.005 157.685 425.302 158.033 430.813 164.187C436.78 170.851 442.939 185.888 438.389 219.672C438.342 220.019 438.17 220.337 437.906 220.568C437.642 220.799 437.304 220.926 436.953 220.928H428.205C427.858 220.926 427.523 220.801 427.26 220.574C426.998 220.347 426.825 220.034 426.773 219.691L423.916 200.004C423.892 199.842 423.809 199.695 423.682 199.592C423.555 199.488 423.393 199.437 423.23 199.447C423.066 199.457 422.913 199.528 422.799 199.646C422.686 199.764 422.621 199.92 422.617 200.084L422.421 209.327C422.414 209.601 422.33 209.868 422.178 210.096C422.026 210.324 421.812 210.505 421.561 210.616C418.442 211.985 401.965 218.406 383.753 210.364C383.506 210.254 383.295 210.077 383.144 209.854C382.992 209.631 382.905 209.37 382.893 209.101L382.535 200.703C382.528 200.539 382.459 200.384 382.343 200.268C382.226 200.152 382.07 200.085 381.906 200.079C381.741 200.074 381.581 200.13 381.456 200.237C381.332 200.344 381.253 200.494 381.234 200.658L379.014 220.33C378.973 220.682 378.804 221.007 378.539 221.243C378.274 221.48 377.931 221.611 377.576 221.613Z" fill="#6C63FF"/>
<path d="M423.523 366.647H423.515L379.991 366.372C379.675 366.369 379.37 366.252 379.134 366.041C378.898 365.83 378.748 365.541 378.71 365.227L374.332 328.071C374.306 327.832 374.193 327.61 374.015 327.446C373.838 327.283 373.607 327.189 373.366 327.182C369.91 327.07 361.69 326.283 359.986 321.425C358.469 317.098 362.619 310.716 372.32 302.455C372.485 302.314 372.683 302.217 372.895 302.172C373.107 302.127 373.328 302.135 373.536 302.197C373.744 302.259 373.933 302.372 374.086 302.526C374.239 302.68 374.352 302.87 374.412 303.078L379.448 320.426C379.51 320.634 379.637 320.817 379.81 320.948C379.983 321.079 380.194 321.151 380.411 321.153L421.679 321.43C421.895 321.432 422.106 321.364 422.281 321.237C422.455 321.11 422.584 320.93 422.648 320.724L428.252 302.922C428.314 302.723 428.424 302.542 428.571 302.395C428.718 302.247 428.899 302.137 429.097 302.074C429.296 302.011 429.507 301.997 429.713 302.033C429.918 302.068 430.112 302.153 430.278 302.279C434.101 305.195 446.419 315.206 444.392 321.608C443.33 324.961 438.541 326.83 430.157 327.164C429.916 327.172 429.686 327.266 429.509 327.43C429.332 327.593 429.22 327.814 429.193 328.053L424.813 365.501C424.776 365.816 424.624 366.108 424.387 366.319C424.149 366.53 423.842 366.647 423.523 366.647Z" fill="#6C63FF"/>
<path d="M614.25 210.183C600.573 212.811 587.676 218.515 576.535 226.86C575.971 225.362 574.909 224.104 573.527 223.294C572.584 222.709 571.554 222.277 570.475 222.013C569.494 221.764 568.552 222.359 567.686 223.217C566.69 224.317 565.855 225.552 565.205 226.885C550.258 216.642 527.586 210.106 527.586 210.106V208.057C527.604 207.574 527.653 207.093 527.733 206.617C527.81 206.066 527.906 205.58 528.028 204.984C529.952 195.215 537.556 172.891 537.556 172.891H546.155L562.826 176.348L581.581 175.202L600.471 171.278L602.92 170.766C607.004 173.966 611.64 196.373 613.461 205.912C613.692 207.122 613.872 208.121 614.006 208.857C614.167 209.69 614.25 210.183 614.25 210.183Z" fill="#CCCCCC"/>
<path d="M562.944 308.527C562.944 308.527 558.95 309.524 552.756 326.274C546.562 343.025 544.368 364.667 544.368 364.667C544.368 364.667 540.885 370.556 555.751 370.95C555.751 370.95 554.556 374.839 562.944 374.242C571.332 373.645 570.125 373.651 570.125 373.651C570.125 373.651 575.518 370.26 577.915 370.857C580.313 371.454 581.81 371.657 584.405 373.848C587 376.039 595.295 375.146 595.394 373.454C595.461 372.622 595.461 371.787 595.394 370.956C595.394 370.956 608.078 371.755 605.68 362.58C603.283 353.405 601.286 338.347 601.286 338.347C601.286 338.347 594.796 308.933 587.4 308.533C580.005 308.133 562.944 308.527 562.944 308.527Z" fill="#CCCCCC"/>
<path d="M152.941 280.289C166.095 280.289 176.758 269.643 176.758 256.509C176.758 243.375 166.095 232.729 152.941 232.729C139.787 232.729 129.123 243.375 129.123 256.509C129.123 269.643 139.787 280.289 152.941 280.289Z" fill="#2F2E41"/>
<path d="M154.941 280.335C165.711 280.335 174.441 271.618 174.441 260.866C174.441 250.113 165.711 241.397 154.941 241.397C144.172 241.397 135.442 250.113 135.442 260.866C135.442 271.618 144.172 280.335 154.941 280.335Z" fill="#FFB8B8"/>
<path d="M229.203 320.083C228.894 320.394 228.609 320.729 228.352 321.085L189.004 319.697L184.503 311.27L170.878 316.389L177.393 332.081C177.919 333.348 178.843 334.411 180.026 335.11C181.209 335.809 182.587 336.106 183.953 335.956L228.48 331.074C229.514 332.412 230.932 333.403 232.545 333.916C234.157 334.429 235.888 334.44 237.507 333.947C239.125 333.454 240.555 332.481 241.607 331.156C242.658 329.832 243.28 328.22 243.391 326.534C243.502 324.848 243.097 323.168 242.228 321.717C241.359 320.267 240.069 319.115 238.529 318.415C236.989 317.715 235.272 317.499 233.606 317.797C231.94 318.095 230.404 318.893 229.204 320.083H229.203Z" fill="#FFB8B8"/>
<path d="M165.636 323.966C165.135 323.742 164.688 323.412 164.326 322.999C163.964 322.586 163.695 322.1 163.538 321.574L158.058 303.209C156.868 300.665 156.736 297.754 157.692 295.114C158.648 292.474 160.614 290.321 163.158 289.125C165.702 287.93 168.617 287.791 171.264 288.738C173.911 289.685 176.073 291.642 177.277 294.179L187.894 310.218C188.197 310.676 188.397 311.194 188.482 311.736C188.566 312.278 188.533 312.832 188.384 313.36C188.234 313.888 187.973 314.378 187.617 314.796C187.261 315.214 186.819 315.551 186.321 315.783L168.821 323.943C168.323 324.175 167.781 324.297 167.231 324.302C166.682 324.306 166.138 324.191 165.636 323.966Z" fill="#CCCCCC"/>
<path d="M204.391 510.43L212.94 505.783L199.059 470.65L186.442 477.507L204.391 510.43Z" fill="#FFB8B8"/>
<path d="M200.692 508.828L217.527 499.678L217.528 499.677C218.937 498.912 220.483 498.43 222.078 498.261C223.674 498.092 225.286 498.238 226.825 498.692C228.364 499.145 229.798 499.896 231.046 500.903C232.293 501.91 233.33 503.152 234.097 504.559L234.287 504.907L206.722 519.889L200.692 508.828Z" fill="#2F2E41"/>
<path d="M110.322 510.468H120.055L124.686 472.984L110.32 472.984L110.322 510.468Z" fill="#FFB8B8"/>
<path d="M107.839 507.296L127.007 507.295H127.008C128.612 507.295 130.201 507.61 131.683 508.223C133.165 508.836 134.512 509.734 135.646 510.867C136.78 511.999 137.68 513.344 138.294 514.824C138.908 516.303 139.224 517.889 139.224 519.491V519.887L107.84 519.889L107.839 507.296Z" fill="#2F2E41"/>
<path d="M170.804 344.1L173.98 382.149L209.403 488.254C209.543 488.672 209.594 489.113 209.553 489.551C209.512 489.989 209.38 490.414 209.166 490.798C208.952 491.183 208.66 491.519 208.309 491.784C207.957 492.05 207.555 492.24 207.126 492.342L196.269 494.923C195.574 495.088 194.843 495.014 194.195 494.713C193.547 494.413 193.02 493.903 192.698 493.265L147.41 403.571C147.262 403.279 147.027 403.039 146.738 402.885C146.449 402.731 146.118 402.671 145.793 402.712C145.468 402.753 145.163 402.893 144.921 403.114C144.679 403.335 144.511 403.625 144.441 403.945L124.511 494.597C124.355 495.303 123.963 495.935 123.399 496.388C122.835 496.841 122.133 497.088 121.409 497.088H111.309C110.888 497.089 110.471 497.006 110.083 496.844C109.695 496.682 109.343 496.444 109.048 496.145C108.752 495.846 108.52 495.491 108.363 495.102C108.206 494.712 108.129 494.295 108.136 493.875C109.061 431.018 106.008 359.393 130.314 348.064L134.284 337.759L170.804 344.1Z" fill="#2F2E41"/>
<path d="M133.141 340.458L129.048 315.743C128.37 311.691 128.725 307.533 130.081 303.653C131.436 299.773 133.748 296.297 136.803 293.544C139.789 290.817 143.415 288.885 147.346 287.926C151.277 286.967 155.386 287.011 159.296 288.055C159.528 288.116 159.76 288.181 159.993 288.246C164.803 289.621 169.074 292.437 172.23 296.313C175.386 300.19 177.274 304.94 177.639 309.922C178.421 320.655 177.722 336.226 169.956 349.453L169.805 349.71L133.141 340.458Z" fill="#CCCCCC"/>
<path d="M174.339 250.518C169.883 253.584 164.595 255.216 159.183 255.195C161.113 256.531 163.311 257.434 165.624 257.841C158.429 259.382 150.993 259.424 143.781 257.963C142.177 257.707 140.631 257.176 139.208 256.395C138.499 256 137.881 255.46 137.395 254.811C136.908 254.161 136.565 253.417 136.385 252.626C135.906 249.893 138.039 247.409 140.256 245.735C143.651 243.212 147.565 241.473 151.715 240.645C155.865 239.817 160.147 239.921 164.252 240.948C166.933 241.64 169.618 242.808 171.359 244.958C173.1 247.107 173.616 250.421 171.957 252.634L174.339 250.518Z" fill="#2F2E41"/>
<path d="M152.627 232.611C154.888 223.499 146.786 213.374 137.386 213.564C127.848 213.756 120.829 222.362 116.005 230.578C111.18 238.795 106.385 248.11 97.528 251.647C94.597 252.818 91.4209 253.244 88.2843 252.888C85.1478 252.531 82.1489 251.403 79.5565 249.604C76.9641 247.806 74.8594 245.393 73.4308 242.582C72.0023 239.771 71.2947 236.651 71.3715 233.5C70.1823 243.482 71.8299 254.283 78.2777 262.004C84.7255 269.725 96.7231 273.205 105.347 268.016C110.272 265.053 113.42 259.901 116.015 254.778C118.61 249.654 120.92 244.252 124.852 240.063C128.785 235.874 134.866 233.093 140.338 234.856C142.511 235.556 144.46 236.919 146.704 237.334C148.949 237.749 151.774 236.684 152.081 234.426L152.627 232.611Z" fill="#2F2E41"/>
<path d="M105.63 397.84C104.821 396.893 104.229 395.78 103.897 394.58C103.565 393.38 103.501 392.122 103.708 390.895C103.916 389.667 104.39 388.5 105.099 387.476C105.807 386.451 106.731 385.594 107.807 384.965L124.722 309.266L141.881 316.297L119.859 388.496C120.797 390.371 121.015 392.524 120.47 394.548C119.925 396.572 118.655 398.326 116.901 399.478C115.147 400.63 113.031 401.099 110.954 400.797C108.877 400.495 106.982 399.443 105.63 397.84H105.63Z" fill="#FFB8B8"/>
<path d="M118.02 320.125C117.75 319.648 117.586 319.117 117.54 318.57C117.494 318.024 117.567 317.473 117.753 316.957L124.258 298.927C124.811 296.175 126.435 293.754 128.774 292.196C131.113 290.637 133.975 290.068 136.733 290.613C139.491 291.159 141.92 292.774 143.488 295.105C145.055 297.435 145.633 300.292 145.094 303.047L144.106 322.247C144.078 322.795 143.931 323.331 143.677 323.817C143.423 324.304 143.067 324.73 142.633 325.066C142.199 325.403 141.697 325.642 141.162 325.768C140.628 325.894 140.072 325.903 139.533 325.795L120.598 321.993C120.059 321.885 119.549 321.663 119.105 321.34C118.66 321.018 118.29 320.604 118.02 320.125Z" fill="#CCCCCC"/>
<path d="M256.607 311.636L256.325 311.597L257.386 303.89C257.549 302.707 257.234 301.508 256.512 300.556C255.789 299.605 254.717 298.979 253.532 298.816L237.178 296.571C235.993 296.409 234.792 296.723 233.839 297.444C232.886 298.166 232.259 299.236 232.096 300.419L226.275 342.701C226.112 343.884 226.426 345.083 227.149 346.035C227.872 346.986 228.943 347.612 230.128 347.775L246.483 350.02C247.668 350.182 248.869 349.868 249.822 349.147C250.775 348.425 251.402 347.355 251.565 346.172L255.57 317.083L255.851 317.122L256.607 311.636Z" fill="#3F3D56"/>
<path d="M253.018 301.077L250.982 300.798C251.044 301.04 251.046 301.293 250.987 301.536C250.927 301.779 250.809 302.004 250.643 302.19C250.476 302.376 250.266 302.519 250.031 302.606C249.796 302.692 249.544 302.719 249.296 302.685L240.359 301.459C240.111 301.425 239.875 301.33 239.673 301.184C239.47 301.037 239.306 300.843 239.196 300.619C239.086 300.394 239.033 300.146 239.042 299.897C239.05 299.647 239.12 299.403 239.246 299.187L237.344 298.926C236.926 298.868 236.501 298.894 236.093 299.001C235.684 299.107 235.301 299.293 234.965 299.548C234.629 299.802 234.346 300.12 234.133 300.484C233.92 300.847 233.781 301.249 233.724 301.667L228.179 341.938C228.122 342.355 228.147 342.78 228.254 343.187C228.361 343.595 228.547 343.977 228.802 344.313C229.057 344.649 229.375 344.931 229.74 345.143C230.104 345.356 230.506 345.495 230.924 345.552L246.599 347.704C247.443 347.82 248.298 347.596 248.977 347.082C249.656 346.568 250.103 345.806 250.219 344.963L255.763 304.691C255.879 303.849 255.655 302.994 255.14 302.317C254.626 301.639 253.862 301.193 253.018 301.077L253.018 301.077Z" fill="white"/>
<path d="M241.902 334.512C246.725 334.512 250.635 330.608 250.635 325.793C250.635 320.977 246.725 317.073 241.902 317.073C237.079 317.073 233.169 320.977 233.169 325.793C233.169 330.608 237.079 334.512 241.902 334.512Z" fill="#6C63FF"/>
<path d="M241.036 329.119C240.84 329.119 240.648 329.056 240.491 328.938L240.481 328.931L238.429 327.362C238.333 327.289 238.253 327.199 238.193 327.095C238.133 326.992 238.093 326.877 238.078 326.759C238.062 326.64 238.069 326.519 238.1 326.403C238.131 326.288 238.185 326.179 238.258 326.084C238.33 325.989 238.422 325.909 238.525 325.849C238.629 325.789 238.744 325.751 238.863 325.735C238.982 325.719 239.103 325.728 239.219 325.759C239.334 325.79 239.443 325.844 239.538 325.917L240.867 326.934L244.009 322.844C244.082 322.749 244.173 322.669 244.276 322.61C244.38 322.55 244.494 322.511 244.613 322.495C244.732 322.48 244.852 322.488 244.968 322.518C245.084 322.549 245.192 322.603 245.287 322.675L245.268 322.702L245.288 322.676C245.479 322.823 245.605 323.04 245.637 323.279C245.668 323.518 245.603 323.76 245.457 323.952L241.761 328.764C241.676 328.875 241.566 328.964 241.44 329.026C241.314 329.087 241.176 329.119 241.036 329.119Z" fill="white"/>
<path d="M322.391 520H19.9074C19.6968 520 19.4949 519.916 19.346 519.768C19.1971 519.619 19.1134 519.418 19.1134 519.207C19.1134 518.997 19.1971 518.795 19.346 518.647C19.4949 518.498 19.6968 518.415 19.9074 518.415H322.391C322.601 518.415 322.803 518.498 322.952 518.647C323.101 518.795 323.185 518.997 323.185 519.207C323.185 519.418 323.101 519.619 322.952 519.768C322.803 519.916 322.601 520 322.391 520Z" fill="#3F3D56"/>
</g>
<defs>
<clipPath id="clip0">
<rect width="673" height="520" fill="white"/>
</clipPath>
</defs>
</svg>
