<svg width="1089" height="372" viewBox="0 0 1089 372" fill="none" xmlns="http://www.w3.org/2000/svg">
<g opacity="0.5" clip-path="url(#clip0)">
<path d="M418.341 97.5938C221.562 56.4951 50.0152 145.455 -11.161 195.073L-1.26116 398.811H151.425L1115.9 382.564C1120.98 242.201 1125.58 -30.2695 1103.33 2.75018C1081.1 35.7698 1039.49 63.6375 1021.48 73.4439C989.109 92.6178 902.674 135.18 815.857 152.042C707.341 173.118 664.315 148.968 418.341 97.5938Z" fill="#6C63FF" fill-opacity="0.3"/>
<path d="M660 120C414 242.8 80.8333 248.5 -55 236L-25.5 509.5L1139 419.5L1163 120C1097.83 68.8329 906 -2.80046 660 120Z" fill="#C4C4C4" fill-opacity="0.4"/>
</g>
<defs>
<clipPath id="clip0">
<rect width="1089" height="374" fill="white"/>
</clipPath>
</defs>
</svg>
