<svg width="79" height="79" viewBox="0 0 79 79" fill="none" xmlns="http://www.w3.org/2000/svg">
<path d="M14.8125 43.076V64.1875C14.8125 64.8422 15.0726 65.4702 15.5356 65.9332C15.9986 66.3961 16.6265 66.6562 17.2812 66.6562H61.7188C62.3735 66.6562 63.0014 66.3961 63.4644 65.9332C63.9274 65.4702 64.1875 64.8422 64.1875 64.1875V43.0765" stroke="#3C378F" stroke-width="2" stroke-linecap="round" stroke-linejoin="round"/>
<path d="M16.6747 12.3438H62.3253C62.8618 12.3438 63.3837 12.5185 63.812 12.8416C64.2403 13.1646 64.5517 13.6184 64.6991 14.1343L69.125 29.625H9.875L14.3009 14.1343C14.4483 13.6184 14.7597 13.1646 15.188 12.8416C15.6163 12.5185 16.1382 12.3438 16.6747 12.3438Z" stroke="#3C378F" stroke-width="2" stroke-linecap="round" stroke-linejoin="round"/>
<path d="M29.625 29.625V34.5625C29.625 37.1815 28.5846 39.6933 26.7327 41.5452C24.8808 43.3971 22.369 44.4375 19.75 44.4375C17.131 44.4375 14.6192 43.3971 12.7673 41.5452C10.9154 39.6933 9.875 37.1815 9.875 34.5625V29.625" stroke="#3C378F" stroke-width="2" stroke-linecap="round" stroke-linejoin="round"/>
<path d="M49.375 29.625V34.5625C49.375 37.1815 48.3346 39.6933 46.4827 41.5452C44.6308 43.3971 42.119 44.4375 39.5 44.4375C36.881 44.4375 34.3692 43.3971 32.5173 41.5452C30.6654 39.6933 29.625 37.1815 29.625 34.5625V29.625" stroke="#3C378F" stroke-width="2" stroke-linecap="round" stroke-linejoin="round"/>
<path d="M69.125 29.625V34.5625C69.125 37.1815 68.0846 39.6933 66.2327 41.5452C64.3808 43.3971 61.869 44.4375 59.25 44.4375C56.631 44.4375 54.1192 43.3971 52.2673 41.5452C50.4154 39.6933 49.375 37.1815 49.375 34.5625V29.625" stroke="#3C378F" stroke-width="2" stroke-linecap="round" stroke-linejoin="round"/>
</svg>
